<svg width="120" height="31" viewBox="0 0 120 31" fill="none" xmlns="http://www.w3.org/2000/svg">
<g clip-path="url(#clip0_1_1035)">
<path d="M90.2737 18.4626H98.2434L100.725 9.00529H107.898C107.959 8.99929 108.021 9.00766 108.078 9.02977C108.135 9.05188 108.187 9.08713 108.228 9.13278C108.281 9.20175 108.306 9.28908 108.297 9.37617C108.304 9.43778 108.304 9.49999 108.297 9.56161L107.557 12.1693H102.604L100.475 20.2822H105.45L105.006 21.9975C104.935 22.2362 104.794 22.4476 104.604 22.6046C104.413 22.7616 104.18 22.8569 103.936 22.8783H89.1351L87.0175 30.9912H103.447C105.519 30.8828 107.507 30.1237 109.138 28.8183C110.769 27.5129 111.962 25.7253 112.555 23.7012C112.555 23.7012 113.181 21.3832 113.443 20.3286H117.337L119.466 12.2157H115.526L116.483 8.58806C116.654 7.95353 116.742 7.29888 116.745 6.64097C116.756 5.38533 116.355 4.16182 115.606 3.16402C115.06 2.44814 114.355 1.87283 113.551 1.48433C112.746 1.09584 111.863 0.905007 110.972 0.927186H94.8961L90.2737 18.4626ZM82.3608 0H74.3911L73.3436 3.9869H64.4972L62.3681 12.0998H71.2146C71.0438 12.772 70.8844 13.3515 70.7592 13.8151H61.9241L59.795 21.9279H68.6415L66.2505 30.9912H74.2203L76.5998 21.9279H85.4463L87.5753 13.8151H78.7289L79.1843 12.0998H88.0308L90.1598 3.9869H81.3134L82.3608 0ZM37.2178 0.915596L29.3278 30.8985H37.2975L45.1876 0.915596H37.2178ZM41.2027 23.284C40.9228 24.2014 40.8573 25.1727 41.0114 26.1205C41.1656 27.0682 41.5352 27.9662 42.0908 28.7428C42.6444 29.4422 43.3502 30.001 44.1525 30.3751C44.9547 30.7493 45.8313 30.9284 46.7132 30.8985H55.7077L57.8368 22.7856H49.867C49.806 22.7916 49.7445 22.7832 49.6873 22.7611C49.63 22.739 49.5785 22.7038 49.5368 22.6581C49.5056 22.5931 49.4894 22.5218 49.4894 22.4495C49.4894 22.3772 49.5056 22.3058 49.5368 22.2409L55.0587 0.915596H47.089L41.2027 23.284ZM7.24016 21.9395C7.16706 22.1775 7.02643 22.3881 6.83599 22.5448C6.64554 22.7015 6.4138 22.7974 6.16994 22.8204H2.65186L0.53418 30.8985H5.68037C7.75238 30.79 9.74054 30.031 11.3715 28.7256C13.0025 27.4202 14.1963 25.6326 14.7887 23.6085L17.4415 13.5253H9.4717L7.24016 21.9395Z" fill="#2C4197"/>
<path d="M90.2737 18.4626H98.2434L100.725 9.00529H107.898C107.959 8.99929 108.021 9.00766 108.078 9.02977C108.135 9.05188 108.187 9.08713 108.228 9.13278C108.281 9.20175 108.306 9.28908 108.297 9.37617C108.304 9.43778 108.304 9.49999 108.297 9.56161L107.557 12.1693H102.604L100.475 20.2822H105.45L105.006 21.9975C104.935 22.2362 104.794 22.4476 104.604 22.6046C104.413 22.7616 104.18 22.8569 103.936 22.8783H89.1351L87.0175 30.9912H103.447C105.519 30.8828 107.507 30.1237 109.138 28.8183C110.769 27.5129 111.962 25.7253 112.555 23.7012C112.555 23.7012 113.181 21.3832 113.443 20.3286H117.337L119.466 12.2157H115.526L116.483 8.58806C116.654 7.95353 116.742 7.29888 116.745 6.64097C116.756 5.38533 116.355 4.16182 115.606 3.16402C115.06 2.44814 114.355 1.87283 113.551 1.48433C112.746 1.09584 111.863 0.905007 110.972 0.927186H94.8961L90.2737 18.4626ZM82.3608 0H74.3911L73.3436 3.9869H64.4972L62.3681 12.0998H71.2146C71.0438 12.772 70.8844 13.3515 70.7592 13.8151H61.9241L59.795 21.9279H68.6415L66.2505 30.9912H74.2203L76.5998 21.9279H85.4463L87.5753 13.8151H78.7289L79.1843 12.0998H88.0308L90.1598 3.9869H81.3134L82.3608 0ZM37.2178 0.915596L29.3278 30.8985H37.2975L45.1876 0.915596H37.2178ZM41.2027 23.284C40.9228 24.2014 40.8573 25.1727 41.0114 26.1205C41.1656 27.0682 41.5352 27.9662 42.0908 28.7428C42.6444 29.4422 43.3502 30.001 44.1525 30.3751C44.9547 30.7493 45.8313 30.9284 46.7132 30.8985H55.7077L57.8368 22.7856H49.867C49.806 22.7916 49.7445 22.7832 49.6873 22.7611C49.63 22.739 49.5785 22.7038 49.5368 22.6581C49.5056 22.5931 49.4894 22.5218 49.4894 22.4495C49.4894 22.3772 49.5056 22.3058 49.5368 22.2409L55.0587 0.915596H47.089L41.2027 23.284ZM7.24016 21.9395C7.16706 22.1775 7.02643 22.3881 6.83599 22.5448C6.64554 22.7015 6.4138 22.7974 6.16994 22.8204H2.65186L0.53418 30.8985H5.68037C7.75238 30.79 9.74054 30.031 11.3715 28.7256C13.0025 27.4202 14.1963 25.6326 14.7887 23.6085L17.4415 13.5253H9.4717L7.24016 21.9395Z" fill="#565656"/>
<path d="M6.22672 0.9156L4.09766 9.02848H21.2099C21.4528 9.01614 21.6952 9.06096 21.9183 9.15945C22.1414 9.25794 22.3393 9.40745 22.4964 9.59638C22.6479 9.82065 22.7462 10.0776 22.7838 10.347C22.8213 10.6165 22.797 10.8911 22.7127 11.1494C22.5139 11.8202 22.1161 12.4119 21.5739 12.8435C21.0317 13.2751 20.3717 13.5254 19.6842 13.5601H19.2516L17.1225 21.673H17.8853C23.4072 21.673 29.0999 17.1182 30.58 11.4971C30.9798 10.2379 31.085 8.90107 30.8873 7.59314C30.6896 6.28522 30.1945 5.04239 29.4415 3.96372C28.6806 2.97615 27.7014 2.18536 26.5836 1.6557C25.4658 1.12604 24.241 0.872464 23.0088 0.9156H6.22672Z" fill="#2C4197"/>
<path d="M6.22672 0.9156L4.09766 9.02848H21.2099C21.4528 9.01614 21.6952 9.06096 21.9183 9.15945C22.1414 9.25794 22.3393 9.40745 22.4964 9.59638C22.6479 9.82065 22.7462 10.0776 22.7838 10.347C22.8213 10.6165 22.797 10.8911 22.7127 11.1494C22.5139 11.8202 22.1161 12.4119 21.5739 12.8435C21.0317 13.2751 20.3717 13.5254 19.6842 13.5601H19.2516L17.1225 21.673H17.8853C23.4072 21.673 29.0999 17.1182 30.58 11.4971C30.9798 10.2379 31.085 8.90107 30.8873 7.59314C30.6896 6.28522 30.1945 5.04239 29.4415 3.96372C28.6806 2.97615 27.7014 2.18536 26.5836 1.6557C25.4658 1.12604 24.241 0.872464 23.0088 0.9156H6.22672Z" fill="#565656"/>
</g>
<defs>
<clipPath id="clip0_1_1035">
<rect width="119" height="31" fill="white" transform="translate(0.5)"/>
</clipPath>
</defs>
</svg>
