<svg width="165" height="35" viewBox="0 0 165 35" fill="none" xmlns="http://www.w3.org/2000/svg">
<path d="M6.97949 28.2024C6.97949 28.0578 6.97949 27.9855 6.97949 27.8409C6.97949 23.6467 6.97949 19.5248 6.97949 15.3305C6.97949 15.1859 6.97949 15.1136 6.97949 14.969C7.50084 14.752 7.9477 14.5351 8.46905 14.3181C9.06487 14.1012 9.58621 13.8119 10.182 13.595C10.2565 13.5227 10.4055 13.5227 10.4799 13.5227C11.2992 13.5227 12.1929 13.5227 13.0122 13.5227C13.0867 13.5227 13.0867 13.5227 13.1611 13.5227C13.1611 15.6921 13.1611 17.7892 13.1611 19.9586C13.1611 19.9586 13.1611 19.9586 13.2356 19.9586C13.4591 19.6694 13.6825 19.3801 13.9059 19.0909C15.0976 17.4276 16.2892 15.7644 17.5553 14.1735C17.6298 14.1012 17.7043 13.9566 17.8532 13.8843C18.8215 13.3781 19.7897 12.8719 20.8324 12.3657C22.4709 11.4979 24.0349 10.7024 25.6734 9.83467C27.0885 9.03921 28.578 8.31607 29.9931 7.52062C31.1103 6.94211 32.2274 6.36359 33.2701 5.78508C33.3446 5.71277 33.4191 5.71277 33.568 5.71277C33.7915 6.00202 33.9404 6.36359 34.1639 6.65285C35.2066 8.4607 36.3237 10.1962 37.3664 12.0041C38.5581 13.9566 39.6752 15.909 40.8669 17.8615C41.984 19.814 43.1757 21.7665 44.2928 23.6467C45.1866 25.1652 46.0803 26.6115 46.974 28.1301C46.974 28.2024 47.0485 28.2024 47.0485 28.2747C43.6225 28.2747 40.1221 28.2747 36.6961 28.2747C36.6216 28.2024 36.6216 28.0578 36.5472 27.9855C35.2066 25.7438 33.9404 23.5743 32.5998 21.3326C31.8551 20.1033 31.1848 18.9462 30.44 17.7169C29.7697 16.6322 29.0994 15.4752 28.5036 14.3905L28.4291 14.3181C28.3546 14.3905 28.3546 14.4628 28.2801 14.5351C28.0567 14.8967 27.8333 15.2582 27.6098 15.6198C26.7161 17.1384 25.8224 18.5847 24.9286 20.1033C24.0349 21.5495 23.2156 22.9958 22.3219 24.4421C21.7261 25.3822 21.2047 26.3223 20.6089 27.2624C20.46 27.5516 20.2365 27.8409 20.0876 28.2024C15.6934 28.2024 11.3737 28.2024 6.97949 28.2024Z" fill="#00E28D"/>
<path d="M6.97949 28.2024C6.97949 28.0578 6.97949 27.9855 6.97949 27.8409C6.97949 23.6467 6.97949 19.5248 6.97949 15.3305C6.97949 15.1859 6.97949 15.1136 6.97949 14.969C7.50084 14.752 7.9477 14.5351 8.46905 14.3181C9.06487 14.1012 9.58621 13.8119 10.182 13.595C10.2565 13.5227 10.4055 13.5227 10.4799 13.5227C11.2992 13.5227 12.1929 13.5227 13.0122 13.5227C13.0867 13.5227 13.0867 13.5227 13.1611 13.5227C13.1611 15.6921 13.1611 17.7892 13.1611 19.9586C13.1611 19.9586 13.1611 19.9586 13.2356 19.9586C13.4591 19.6694 13.6825 19.3801 13.9059 19.0909C15.0976 17.4276 16.2892 15.7644 17.5553 14.1735C17.6298 14.1012 17.7043 13.9566 17.8532 13.8843C18.8215 13.3781 19.7897 12.8719 20.8324 12.3657C22.4709 11.4979 24.0349 10.7024 25.6734 9.83467C27.0885 9.03921 28.578 8.31607 29.9931 7.52062C31.1103 6.94211 32.2274 6.36359 33.2701 5.78508C33.3446 5.71277 33.4191 5.71277 33.568 5.71277C33.7915 6.00202 33.9404 6.36359 34.1639 6.65285C35.2066 8.4607 36.3237 10.1962 37.3664 12.0041C38.5581 13.9566 39.6752 15.909 40.8669 17.8615C41.984 19.814 43.1757 21.7665 44.2928 23.6467C45.1866 25.1652 46.0803 26.6115 46.974 28.1301C46.974 28.2024 47.0485 28.2024 47.0485 28.2747C43.6225 28.2747 40.1221 28.2747 36.6961 28.2747C36.6216 28.2024 36.6216 28.0578 36.5472 27.9855C35.2066 25.7438 33.9404 23.5743 32.5998 21.3326C31.8551 20.1033 31.1848 18.9462 30.44 17.7169C29.7697 16.6322 29.0994 15.4752 28.5036 14.3905L28.4291 14.3181C28.3546 14.3905 28.3546 14.4628 28.2801 14.5351C28.0567 14.8967 27.8333 15.2582 27.6098 15.6198C26.7161 17.1384 25.8224 18.5847 24.9286 20.1033C24.0349 21.5495 23.2156 22.9958 22.3219 24.4421C21.7261 25.3822 21.2047 26.3223 20.6089 27.2624C20.46 27.5516 20.2365 27.8409 20.0876 28.2024C15.6934 28.2024 11.3737 28.2024 6.97949 28.2024Z" fill="#565656"/>
<path d="M157.872 22.4896C157.723 22.9235 157.574 23.4297 157.5 23.8636C157.202 25.0206 156.829 26.1777 156.531 27.3347C156.531 27.407 156.457 27.4793 156.457 27.5516C152.063 27.5516 147.669 27.5516 143.2 27.5516C143.125 27.2624 142.976 26.9731 142.902 26.6839C142.827 26.5392 142.902 26.4669 142.976 26.3946C143.423 25.8161 143.87 25.1653 144.243 24.5867C146.7 21.188 149.158 17.7892 151.541 14.3905C151.69 14.1735 151.839 13.9566 152.063 13.7396C152.063 13.7396 152.063 13.6673 151.988 13.6673C150.648 13.595 149.307 13.6673 148.041 14.3182C147.371 14.6797 146.7 15.1136 146.179 15.6198C145.658 16.126 145.211 16.7045 144.689 17.2107C144.615 17.283 144.54 17.3553 144.466 17.4277C144.094 17.283 143.796 17.1384 143.423 16.9938C143.945 15.4752 144.54 13.9566 145.062 12.438C149.233 12.438 153.329 12.438 157.5 12.438C157.649 12.6549 157.723 12.8719 157.872 13.1611C157.872 13.2334 157.872 13.3058 157.872 13.3781C157.797 13.5227 157.649 13.6673 157.574 13.812C156.904 14.752 156.233 15.6921 155.563 16.6322C154.297 18.4401 152.956 20.2479 151.69 21.9834C150.722 23.2851 149.754 24.6591 148.786 25.9607C148.711 26.033 148.637 26.1053 148.562 26.25C148.711 26.25 148.786 26.25 148.86 26.25C149.233 26.25 149.679 26.25 150.052 26.25C151.467 26.1777 152.807 25.7438 153.999 24.9483C155.191 24.2252 156.159 23.2128 156.904 22.0558C156.978 21.9834 156.978 21.9111 157.053 21.8388C157.351 21.9834 157.649 22.0558 157.946 22.1281C157.872 22.345 157.872 22.4173 157.872 22.4896Z" fill="#565656"/>
<path d="M106.035 22.2727C106.11 22.2004 106.11 22.1281 106.11 22.0558C106.854 20.1756 107.674 18.3678 108.418 16.4876C108.567 16.126 108.642 15.7645 108.716 15.4029C108.865 14.3905 108.269 13.6674 107.301 13.4504C107.152 13.4504 107.003 13.3781 106.78 13.3781C106.78 13.0889 106.78 12.7273 106.78 12.438C108.791 12.438 110.802 12.438 112.887 12.438C112.962 12.7273 112.887 13.0889 112.887 13.3781C112.813 13.3781 112.813 13.4504 112.738 13.4504C111.993 13.6674 111.472 14.1012 111.1 14.6798C110.727 15.186 110.429 15.7645 110.206 16.4153C108.791 19.7417 107.45 22.9959 106.11 26.3223C105.961 26.7562 105.737 27.1901 105.588 27.5517C105.514 27.624 105.514 27.7686 105.365 27.7686C104.695 27.7686 104.099 27.7686 103.428 27.7686C103.428 27.7686 103.428 27.7686 103.354 27.7686C102.162 24.876 100.971 21.9112 99.8535 19.0186H99.779C98.5129 21.9112 97.2467 24.876 95.9061 27.7686C95.2358 27.7686 94.4911 27.7686 93.8208 27.7686C93.7463 27.6963 93.7463 27.624 93.6718 27.4793C92.1078 23.719 90.5437 19.8864 88.9052 16.126C88.7563 15.6922 88.6073 15.3306 88.3839 14.8967C88.1605 14.3905 87.8625 13.9566 87.4157 13.6674C87.1922 13.5227 86.9688 13.4504 86.6709 13.3781C86.6709 13.0889 86.6709 12.7996 86.6709 12.438C89.3521 12.438 92.1078 12.438 94.789 12.438C94.789 12.7996 94.789 13.0889 94.789 13.3781C94.7145 13.3781 94.5655 13.3781 94.4911 13.4504C94.3421 13.5227 94.1187 13.5227 93.9697 13.6674C93.5229 13.8843 93.3739 14.2459 93.4484 14.7521C93.5229 15.0413 93.5973 15.2583 93.6718 15.4752C94.5655 17.6446 95.3848 19.8141 96.2785 21.9835C96.2785 22.0558 96.353 22.1281 96.4275 22.2727C96.502 22.2004 96.502 22.2004 96.502 22.1281C97.2467 20.3926 98.066 18.7293 98.8108 16.9938C98.8853 16.7769 98.8853 16.6322 98.8108 16.4153C98.5873 15.9814 98.4384 15.5475 98.2149 15.1136C97.917 14.5351 97.5447 14.0289 96.9488 13.7397C96.7254 13.595 96.502 13.5227 96.2785 13.4504C96.2041 13.4504 96.1296 13.3781 96.0551 13.3781C96.0551 13.0889 96.0551 12.7273 96.0551 12.438C96.2785 12.3657 104.173 12.3657 104.471 12.438C104.471 12.7273 104.471 13.0889 104.471 13.3781C104.248 13.4504 104.099 13.4504 103.875 13.5227C103.354 13.595 102.982 13.9566 103.13 14.6074C103.205 14.8967 103.279 15.1136 103.354 15.4029C104.248 17.6446 105.067 19.8864 105.961 22.0558C105.961 22.2004 105.961 22.2004 106.035 22.2727Z" fill="#565656"/>
<path d="M72.5199 26.6115C72.5199 26.9731 72.5199 27.2624 72.5199 27.5516C69.6153 27.5516 66.6362 27.5516 63.7316 27.5516C63.7316 27.4793 63.7316 27.407 63.7316 27.3347C63.7316 27.1177 63.7316 26.8285 63.7316 26.5392C64.0295 26.5392 64.2529 26.4669 64.4763 26.4669C65.0722 26.3946 65.4446 26.1053 65.5935 25.5268C65.7425 25.0929 65.8169 24.6591 65.8169 24.2252C65.8169 22.2727 65.8169 20.2479 65.8169 18.2954C65.8169 17.5723 65.7425 16.9215 65.519 16.1983C65.4446 15.9091 65.2956 15.6921 65.1467 15.4752C64.9232 15.1136 64.5508 14.8967 64.104 14.8243C63.1358 14.6074 62.242 14.8243 61.4228 15.4029C61.0504 15.6921 60.7525 15.9814 60.4546 16.2706C60.3801 16.3429 60.3056 16.4153 60.3056 16.5599C60.3056 19.3078 60.3056 22.1281 60.3056 24.876C60.3056 25.0929 60.3801 25.3099 60.4546 25.5268C60.6035 26.1053 61.0504 26.3946 61.6462 26.4669C61.8696 26.5392 62.0931 26.5392 62.3165 26.5392C62.3165 26.8285 62.3165 27.1901 62.3165 27.4793C59.4119 27.4793 56.4327 27.4793 53.5281 27.4793C53.5281 27.1901 53.5281 26.8285 53.5281 26.5392C53.7516 26.5392 53.975 26.4669 54.2729 26.4669C54.8687 26.3946 55.2411 26.1053 55.3901 25.5268C55.539 25.0929 55.6135 24.6591 55.6135 24.1529C55.6135 21.8388 55.6135 19.5971 55.6135 17.283C55.6135 16.9215 55.539 16.5599 55.4645 16.2706C55.2411 15.4029 54.6453 14.8967 53.7516 14.6797C53.6026 14.6797 53.4536 14.6074 53.3047 14.6074C53.3047 14.2458 53.3047 13.9566 53.3047 13.595C55.6135 12.9442 57.9223 12.3657 60.2311 11.7148C60.2311 12.221 60.2311 12.6549 60.2311 13.1611C60.2311 13.595 60.2311 14.1012 60.2311 14.6074C60.3801 14.4628 60.529 14.3905 60.678 14.3181C61.3483 13.8843 61.9441 13.4504 62.6144 13.0888C63.2847 12.7272 63.955 12.3657 64.6998 12.221C66.5617 11.7872 68.4237 12.5103 69.5408 14.0289C70.1367 14.8967 70.509 15.8367 70.509 16.9215C70.509 19.4524 70.509 21.9111 70.509 24.4421C70.509 24.7314 70.509 25.0206 70.5835 25.3099C70.7325 26.1053 71.2538 26.5392 72.1476 26.6115C72.222 26.5392 72.371 26.5392 72.5199 26.6115Z" fill="#565656"/>
<path d="M132.4 22.6343C132.474 23.0681 132.623 23.4297 132.847 23.7913C133.443 24.876 134.411 25.3822 135.677 25.4545C137.464 25.5991 138.954 25.0206 140.369 23.9359C140.518 23.7913 140.667 23.719 140.816 23.5743C140.89 23.502 140.89 23.502 140.965 23.4297C141.337 23.2128 141.635 23.3574 141.635 23.7913C141.635 24.4421 141.412 25.0929 141.039 25.5991C140.369 26.4669 139.475 27.0454 138.507 27.407C137.613 27.7686 136.72 27.9132 135.826 27.9132C134.858 27.9855 133.889 27.9132 132.921 27.6962C131.655 27.407 130.538 26.9008 129.644 25.9607C128.75 25.0929 128.155 24.0082 127.857 22.8512C127.41 20.8264 127.484 18.8739 128.304 16.9214C129.346 14.4628 131.283 12.9442 133.964 12.3657C135.528 12.0041 137.017 12.0041 138.581 12.438C139.252 12.6549 139.922 12.9442 140.518 13.3781C141.263 14.0289 141.71 14.8243 141.784 15.7644C142.007 17.7169 141.114 19.2355 139.55 20.3925C138.433 21.188 137.241 21.6219 135.9 21.9834C134.858 22.2727 133.74 22.4896 132.698 22.6343C132.474 22.5619 132.474 22.5619 132.4 22.6343ZM132.102 20.8264C132.176 20.8264 132.176 20.8264 132.176 20.8264C133.219 20.6095 134.262 20.3202 135.23 19.7417C136.571 18.9462 137.315 17.8615 137.39 16.2706C137.39 15.7644 137.315 15.2582 137.092 14.8243C136.869 14.4628 136.571 14.1735 136.124 14.1012C135.304 13.9566 134.634 14.1012 133.964 14.5351C133.368 14.969 132.996 15.5475 132.698 16.126C132.4 16.8491 132.251 17.5 132.176 18.2954C132.027 19.0909 132.027 19.9586 132.102 20.8264Z" fill="#565656"/>
<path d="M77.2121 22.6343C77.2866 22.779 77.2865 22.9959 77.361 23.1405C77.6589 23.936 78.1058 24.5868 78.8506 25.0207C79.3719 25.3099 79.8933 25.3823 80.4146 25.4546C82.2021 25.5992 83.7661 25.0207 85.1812 23.936C85.3301 23.7914 85.4791 23.719 85.6281 23.5744C85.7025 23.5021 85.777 23.4298 85.8515 23.4298C86.1494 23.2852 86.3728 23.4298 86.4473 23.719C86.5218 24.0083 86.4473 24.2976 86.3728 24.5868C86.2239 25.1653 85.926 25.6715 85.4791 26.1054C84.6598 26.9732 83.6172 27.4794 82.4255 27.7686C80.6381 28.2025 78.7761 28.1302 76.9886 27.5517C74.6054 26.7562 73.1903 25.1653 72.5945 22.779C72.2965 21.5496 72.2965 20.3926 72.4455 19.1633C72.5945 17.9339 73.0413 16.7046 73.7861 15.6922C74.9777 13.9566 76.6163 12.8719 78.7016 12.438C80.1912 12.0765 81.6807 12.0765 83.1703 12.438C84.1385 12.655 84.9578 13.0889 85.6281 13.812C86.1494 14.3905 86.4473 15.0414 86.5218 15.7645C86.6707 16.8492 86.5218 17.8616 85.926 18.8017C85.4791 19.5248 84.8833 20.1033 84.1385 20.6095C83.0958 21.3327 81.8297 21.7666 80.638 22.1281C79.5954 22.4174 78.4782 22.6343 77.4355 22.779C77.361 22.562 77.2866 22.562 77.2121 22.6343ZM76.9142 20.7542C76.9886 20.7542 76.9886 20.7542 77.0631 20.7542C78.1058 20.5372 79.074 20.248 79.9677 19.7418C81.2339 19.0186 82.0531 18.0062 82.2021 16.5599C82.2766 15.9814 82.2021 15.4029 81.9787 14.8967C81.6807 14.2459 81.2339 13.9566 80.5636 13.9566C79.4464 13.8843 78.5527 14.3905 77.9569 15.3306C77.5845 15.8368 77.361 16.4876 77.2121 17.1385C77.0631 17.7893 76.9886 18.4401 76.9142 19.0909C76.8397 19.5971 76.9142 20.1757 76.9142 20.7542Z" fill="#565656"/>
<path d="M113.855 14.752C113.855 14.3905 113.855 14.1012 113.855 13.7396C116.164 13.0888 118.473 12.438 120.782 11.8595C120.782 13.0165 120.782 14.1735 120.782 15.3305C120.782 15.3305 120.782 15.3305 120.856 15.3305C120.931 15.2582 121.005 15.1859 121.08 15.1136C121.676 14.3905 122.346 13.6673 123.091 13.0165C123.612 12.5826 124.133 12.221 124.804 11.9318C125.176 11.7872 125.623 11.7148 126.07 11.7872C126.74 11.8595 127.187 12.221 127.559 12.7272C128.006 13.3781 128.155 14.1012 127.932 14.8967C127.634 15.6921 126.964 16.2706 126.07 16.2706C125.772 16.2706 125.548 16.1983 125.251 16.126C124.953 16.0537 124.655 15.9091 124.431 15.8367C124.282 15.7644 124.059 15.6921 123.91 15.6198C123.389 15.4029 122.867 15.4752 122.42 15.8367C121.899 16.2706 121.378 16.7768 121.005 17.3553C120.931 17.4277 120.931 17.5723 120.931 17.6446C120.931 19.9586 120.931 22.2004 120.931 24.5144C120.931 24.8037 121.005 25.0206 121.08 25.3099C121.229 25.9607 121.75 26.3223 122.42 26.4669C122.644 26.4669 122.942 26.5392 123.24 26.5392C123.24 26.9008 123.24 27.1901 123.24 27.4793C120.186 27.4793 117.132 27.4793 114.079 27.4793C114.079 27.1901 114.079 26.8285 114.079 26.5392C114.228 26.5392 114.377 26.5392 114.526 26.5392C114.749 26.5392 114.898 26.4669 115.122 26.4669C115.568 26.3946 115.866 26.1053 116.09 25.6715C116.239 25.2376 116.313 24.8037 116.313 24.4421C116.313 22.0558 116.313 19.7417 116.313 17.3553C116.313 16.9938 116.239 16.7045 116.164 16.3429C115.941 15.5475 115.42 15.0413 114.526 14.8243C114.153 14.8243 114.004 14.8243 113.855 14.752Z" fill="#565656"/>
<path d="M163.458 25.5992C163.458 26.9009 162.415 27.9133 161 27.9133C159.585 27.9133 158.542 26.9009 158.542 25.5992C158.542 24.2976 159.585 23.2852 161 23.2852C162.34 23.2852 163.458 24.2976 163.458 25.5992ZM163.011 25.5992C163.011 24.5145 162.117 23.6467 160.925 23.6467C159.734 23.6467 158.84 24.4422 158.84 25.5992C158.84 26.7562 159.734 27.5517 160.925 27.5517C162.117 27.5517 163.011 26.7562 163.011 25.5992ZM161.596 25.8885L162.191 27.0455H161.521L161 26.0331H160.478V27.0455H159.883V24.2976H161.074C161.596 24.2976 161.968 24.5868 161.968 25.1653C162.042 25.4546 161.893 25.7438 161.596 25.8885ZM161 25.5269C161.298 25.5269 161.447 25.3823 161.447 25.093C161.447 24.8038 161.223 24.6591 161 24.6591H160.478V25.4546L161 25.5269Z" fill="#565656"/>
</svg>
