<svg width="128" height="25" viewBox="0 0 128 25" fill="none" xmlns="http://www.w3.org/2000/svg">
<g clip-path="url(#clip0_1_1033)">
<path d="M71.9871 0.671265V5.65097H67.6435V8.67883H71.9871V16.448C71.9871 22.3214 74.0231 24.3765 79.4758 24.3765C80.3134 24.3765 81.3779 24.3599 82.3442 24.2567V20.9891C81.5054 21.0746 80.692 21.109 80.0341 21.109C77.0331 21.109 76.0501 20.2854 76.0501 17.0064V8.67756H81.5882V5.65097H76.0501V0.671265H71.9871ZM86.5284 0.671265V24.3765H90.6323V9.9142C91.4393 9.33922 92.9309 8.89811 94.615 8.83819C95.2261 8.82621 95.8373 8.82621 96.4483 8.83819C99.364 8.90066 100.672 10.187 100.672 13.0619V24.3765H104.735V12.7024C104.735 7.75581 102.652 5.73767 97.6034 5.65225C96.7004 5.63472 95.7972 5.63472 94.8942 5.65225C93.3376 5.68412 91.8409 5.96842 90.631 6.68746V0.671265H86.5284ZM7.48543 5.65097C2.85886 5.65097 0.513069 6.7614 0.513069 10.2329C0.513069 10.66 0.499045 10.8946 0.513069 11.388C0.61506 14.4604 2.31193 15.3452 6.52926 15.8501L10.8715 16.3677C14.0868 16.768 15.1743 16.745 15.1743 18.8792C15.1743 20.6602 14.8721 21.2288 12.1859 21.2288H0.991151V24.3765H11.8277C16.9196 24.3765 19.1417 23.0634 19.2781 19.6352C19.2934 19.2094 19.2934 18.178 19.2781 17.6834C19.1774 14.616 17.2778 13.823 13.2224 13.3411L8.91967 12.8209C5.75795 12.4321 4.65645 12.4958 4.65645 10.5899C4.65645 9.32392 5.19318 8.79739 7.24575 8.79739H17.645V5.65097H7.48543ZM32.027 5.65097C31.6088 5.65097 31.104 5.66372 30.3926 5.6905C27.8173 5.76954 25.0891 6.51662 23.1818 7.72267V24.3765H27.2462V9.71531C28.1641 9.15054 29.5996 8.91341 30.5928 8.87771C31.4954 8.85221 32.0296 8.83947 32.783 8.87771C34.9631 8.99245 36.2099 9.87722 36.2099 12.2243V24.3765H40.2742V12.464C40.2742 11.4645 40.1684 10.66 39.9555 9.95372C40.7931 9.24233 42.3778 8.87899 43.4615 8.83819C44.3666 8.81269 44.9327 8.79867 45.6925 8.83819C47.9414 8.95293 49.1181 9.83643 49.1181 12.1848V24.3765H53.222V12.4244C53.222 7.61685 51.2918 5.71982 46.0903 5.65097C45.2246 5.6395 44.8817 5.63058 43.4602 5.65097C41.5224 5.68157 39.5297 6.20937 38.2421 7.20506C37.1355 6.26929 35.524 5.80269 33.182 5.6905C32.7754 5.66755 32.4452 5.65225 32.027 5.65225V5.65097ZM58.6403 5.65097V16.4085C58.6403 21.392 59.8412 24.3765 65.9301 24.3765C66.5497 24.3765 67.4319 24.3842 67.9227 24.3357V21.0312C67.5913 21.0452 67.0826 21.0707 66.6874 21.0707C63.4326 21.0707 62.7033 20.0457 62.7033 16.9669V5.65097H58.6403ZM115.691 5.65097C111.066 5.65097 108.719 6.7614 108.719 10.2329C108.719 10.66 108.705 10.8946 108.719 11.388C108.82 14.4604 110.517 15.3452 114.735 15.8501L119.038 16.3677C122.253 16.768 123.38 16.745 123.38 18.8792C123.38 20.6615 123.079 21.2288 120.392 21.2288H109.197V24.3765H120.034C125.123 24.3765 127.34 23.0634 127.484 19.6352C127.499 18.9847 127.499 18.3339 127.484 17.6834C127.382 14.616 125.49 13.823 121.428 13.3411L117.126 12.8222C113.963 12.4334 112.862 12.4971 112.862 10.5912C112.862 9.3252 113.361 8.79867 115.412 8.79867H125.851V5.65097H115.691Z" fill="#0082C8"/>
<path d="M71.9871 0.671265V5.65097H67.6435V8.67883H71.9871V16.448C71.9871 22.3214 74.0231 24.3765 79.4758 24.3765C80.3134 24.3765 81.3779 24.3599 82.3442 24.2567V20.9891C81.5054 21.0746 80.692 21.109 80.0341 21.109C77.0331 21.109 76.0501 20.2854 76.0501 17.0064V8.67756H81.5882V5.65097H76.0501V0.671265H71.9871ZM86.5284 0.671265V24.3765H90.6323V9.9142C91.4393 9.33922 92.9309 8.89811 94.615 8.83819C95.2261 8.82621 95.8373 8.82621 96.4483 8.83819C99.364 8.90066 100.672 10.187 100.672 13.0619V24.3765H104.735V12.7024C104.735 7.75581 102.652 5.73767 97.6034 5.65225C96.7004 5.63472 95.7972 5.63472 94.8942 5.65225C93.3376 5.68412 91.8409 5.96842 90.631 6.68746V0.671265H86.5284ZM7.48543 5.65097C2.85886 5.65097 0.513069 6.7614 0.513069 10.2329C0.513069 10.66 0.499045 10.8946 0.513069 11.388C0.61506 14.4604 2.31193 15.3452 6.52926 15.8501L10.8715 16.3677C14.0868 16.768 15.1743 16.745 15.1743 18.8792C15.1743 20.6602 14.8721 21.2288 12.1859 21.2288H0.991151V24.3765H11.8277C16.9196 24.3765 19.1417 23.0634 19.2781 19.6352C19.2934 19.2094 19.2934 18.178 19.2781 17.6834C19.1774 14.616 17.2778 13.823 13.2224 13.3411L8.91967 12.8209C5.75795 12.4321 4.65645 12.4958 4.65645 10.5899C4.65645 9.32392 5.19318 8.79739 7.24575 8.79739H17.645V5.65097H7.48543ZM32.027 5.65097C31.6088 5.65097 31.104 5.66372 30.3926 5.6905C27.8173 5.76954 25.0891 6.51662 23.1818 7.72267V24.3765H27.2462V9.71531C28.1641 9.15054 29.5996 8.91341 30.5928 8.87771C31.4954 8.85221 32.0296 8.83947 32.783 8.87771C34.9631 8.99245 36.2099 9.87722 36.2099 12.2243V24.3765H40.2742V12.464C40.2742 11.4645 40.1684 10.66 39.9555 9.95372C40.7931 9.24233 42.3778 8.87899 43.4615 8.83819C44.3666 8.81269 44.9327 8.79867 45.6925 8.83819C47.9414 8.95293 49.1181 9.83643 49.1181 12.1848V24.3765H53.222V12.4244C53.222 7.61685 51.2918 5.71982 46.0903 5.65097C45.2246 5.6395 44.8817 5.63058 43.4602 5.65097C41.5224 5.68157 39.5297 6.20937 38.2421 7.20506C37.1355 6.26929 35.524 5.80269 33.182 5.6905C32.7754 5.66755 32.4452 5.65225 32.027 5.65225V5.65097ZM58.6403 5.65097V16.4085C58.6403 21.392 59.8412 24.3765 65.9301 24.3765C66.5497 24.3765 67.4319 24.3842 67.9227 24.3357V21.0312C67.5913 21.0452 67.0826 21.0707 66.6874 21.0707C63.4326 21.0707 62.7033 20.0457 62.7033 16.9669V5.65097H58.6403ZM115.691 5.65097C111.066 5.65097 108.719 6.7614 108.719 10.2329C108.719 10.66 108.705 10.8946 108.719 11.388C108.82 14.4604 110.517 15.3452 114.735 15.8501L119.038 16.3677C122.253 16.768 123.38 16.745 123.38 18.8792C123.38 20.6615 123.079 21.2288 120.392 21.2288H109.197V24.3765H120.034C125.123 24.3765 127.34 23.0634 127.484 19.6352C127.499 18.9847 127.499 18.3339 127.484 17.6834C127.382 14.616 125.49 13.823 121.428 13.3411L117.126 12.8222C113.963 12.4334 112.862 12.4971 112.862 10.5912C112.862 9.3252 113.361 8.79867 115.412 8.79867H125.851V5.65097H115.691Z" fill="#565656"/>
</g>
<defs>
<clipPath id="clip0_1_1033">
<rect width="127" height="23.8738" fill="white" transform="translate(0.5 0.56311)"/>
</clipPath>
</defs>
</svg>
