<svg width="142" height="25" viewBox="0 0 142 25" fill="none" xmlns="http://www.w3.org/2000/svg">
<g clip-path="url(#clip0_1_1029)">
<path fill-rule="evenodd" clip-rule="evenodd" d="M59.1338 19.7246C59.0924 21.1045 59.5511 22.6096 60.7629 23.237C61.0138 23.237 61.0966 23.4037 61.1388 23.6125C61.1388 23.9059 60.8465 23.9104 60.6793 23.9104L51.1169 23.9119C50.9497 23.8704 50.9497 23.697 50.9497 23.5288C50.9497 23.2785 51.2419 23.237 51.4084 23.1533C53.8306 22.1504 52.7445 19.181 53.0789 17.0485C53.0789 14.122 53.2047 10.8192 53.1211 7.89273H53.1633C53.0797 6.55503 53.1633 4.92401 52.7453 3.50337C52.453 2.79305 51.7428 2.54194 51.0747 2.37454C50.9075 2.24937 50.9497 1.9568 50.9919 1.7894L51.3255 1.622C53.2047 1.28795 55.0417 0.827224 56.9631 0.535405V0.493178L58.8423 0.0332031L59.1345 0.116903L59.1338 19.7246ZM28.4407 9.31412V9.56523C28.4821 12.9939 28.3571 16.0871 28.4407 20.0594C28.5243 21.1053 29.0252 22.3171 30.1527 22.6519L31.1966 23.0289C31.2388 23.2792 31.3638 23.6977 31.0716 23.8229H27.9398C24.7659 23.7814 21.7592 23.9481 18.6688 23.8644C18.3759 23.7392 18.4602 23.3207 18.5431 23.0704C18.9189 22.82 19.462 22.777 19.9214 22.5682C20.9653 22.1512 21.4248 20.9809 21.4248 19.9757L21.3826 8.56308C21.3412 8.47938 21.3412 8.26976 21.1739 8.26976C20.8403 8.35346 20.7567 8.81343 20.6309 9.0223L15.8708 20.3528L14.4924 23.6548C13.908 24.0318 13.1977 23.8229 12.5304 23.8229C12.0288 23.9911 11.8615 23.4889 11.7365 23.1955L7.26786 11.7822L5.84811 8.26976L5.6809 8.14458C5.26364 8.5201 5.43084 9.18895 5.34724 9.81633C5.38866 12.785 5.30506 16.4211 5.34724 19.558C5.34724 20.4772 5.55587 21.6475 6.39116 22.2756C6.8506 22.7348 7.43583 22.7348 8.0203 22.9444C8.14608 23.1533 8.14608 23.4037 8.1039 23.697L7.97812 23.7807L0.753555 23.7377C0.461318 23.6962 0.586347 23.3192 0.544922 23.1103L0.628526 22.9437C1.88107 22.86 3.13362 21.9823 3.50946 20.686C3.88606 19.3491 3.7181 17.5914 3.7181 16.2545V7.89273H3.76028C3.67667 6.38763 3.96891 4.67366 3.34226 3.29374C2.71561 2.54119 1.71387 2.49896 0.878584 2.24862C0.669951 2.03974 0.711376 1.57901 0.836405 1.37014C2.0061 1.28719 3.30008 1.19218 4.5112 1.31736L5.72233 1.23442C7.26711 1.23442 8.97986 1.2035 10.5246 1.3709C11.485 3.54484 12.3202 5.76101 13.1555 7.85125L13.4892 8.6875L13.5306 8.89638C14.2409 10.7355 15.034 12.785 15.8693 14.6242C15.9521 14.7494 16.0779 14.8331 16.2451 14.7494C17.2054 12.9102 17.8735 11.0703 18.6252 9.18895C18.876 8.68675 19.001 8.1853 19.2518 7.80903H19.2096L21.8827 1.49607L22.1335 1.2872C25.1402 1.37015 28.272 1.2035 31.1115 1.24497L31.2373 1.49607C31.1951 1.78865 31.3623 2.29009 30.9036 2.29009C29.7761 2.41602 28.8158 3.25151 28.5228 4.29664C28.3556 5.38323 28.3142 6.80538 28.4392 7.8505V9.31412H28.4407ZM78.386 2.91747C78.6361 3.50261 78.6775 4.29739 78.4274 4.92401C78.1344 5.71879 77.2171 6.42911 76.2974 6.51281C75.2121 6.68021 74.251 6.17801 73.6673 5.30029C73.6244 5.13288 73.4586 4.96624 73.4157 4.75661C73.4586 4.50551 73.0406 4.50551 73.2907 4.25516C73.2493 3.37669 73.5423 2.62414 74.2103 2.03974C74.9206 1.4546 75.9223 1.32867 76.8834 1.57977C77.4664 1.87235 78.1344 2.29084 78.386 2.91747ZM67.9867 4.63219C68.1125 5.55214 68.0704 6.93131 68.1125 7.76755V7.85125H68.0704C68.154 8.01865 67.9867 8.93785 68.4876 9.18895C69.5323 9.18895 70.5754 9.27265 71.6201 9.27265C71.9131 9.52375 71.7451 9.9415 71.7866 10.3178L71.5779 10.5266L68.4884 10.5689L68.1961 10.8614C68.0704 13.8724 68.154 17.5922 68.1125 20.3113C68.2376 20.812 68.3212 21.3556 68.7806 21.6897C69.1143 21.983 69.6151 22.1082 70.0332 21.983C70.7012 21.8993 70.9935 21.2719 71.4951 20.9371C71.6616 20.8957 71.8702 20.9801 71.9131 21.189C70.952 23.4466 68.5298 24.4073 66.1497 24.2821C64.8136 24.1155 63.4352 23.5296 62.7257 22.3585C62.2241 21.4808 62.1827 20.3528 62.0991 19.2654L62.0155 10.9029C61.7647 10.3178 60.9301 10.8607 60.7208 10.2755C60.47 9.18895 61.8069 9.4393 62.3077 8.89562C62.8093 8.60305 63.2266 8.26825 63.7275 8.01715C63.6853 7.93345 63.7697 7.84975 63.8947 7.89122L63.8525 7.80827C65.0636 6.88832 65.8989 5.71803 66.7756 4.63068C67.1522 4.42332 67.5695 4.54849 67.9867 4.63219ZM139.021 11.0703C140.19 13.9968 139.229 17.2988 139.439 20.3927C139.522 21.0201 139.481 21.8563 140.108 22.3163C140.442 22.6918 140.901 22.7755 141.318 22.9852C141.485 23.1103 141.485 23.3192 141.401 23.4874L141.067 23.6125C137.852 23.5288 134.887 23.654 131.63 23.5711C131.087 22.7348 132.382 22.9437 132.716 22.4845C133.384 21.9823 133.424 21.1882 133.467 20.352C133.509 18.0107 133.634 15.7952 133.384 13.5376C133.134 12.5762 132.716 11.4051 131.672 11.154H131.715C131.338 10.8614 130.711 10.9451 130.293 11.0711C130.168 11.2385 129.793 11.2385 129.625 11.4051C128.499 12.0325 128.122 13.2443 128.122 14.4568C128.04 16.7981 127.955 19.0565 128.165 21.3549C128.415 22.066 129.083 22.7348 129.793 22.9852C129.857 23.0504 129.899 23.1334 129.914 23.2232C129.928 23.3129 129.916 23.4051 129.877 23.4874L129.668 23.5711C126.577 23.5281 123.57 23.6125 120.396 23.6125C120.271 23.5711 120.062 23.4874 120.104 23.3192C120.061 22.6918 120.856 22.86 121.231 22.4845C122.609 21.4801 122.066 19.5994 122.276 18.0514C122.276 16.1293 122.234 14.2901 122.108 12.408C122.066 11.9903 121.733 11.7392 121.399 11.5718C120.981 11.2792 120.146 11.614 119.937 11.0703C119.937 10.9029 120.062 10.7777 120.271 10.6933C122.777 10.1496 125.324 9.64817 127.83 9.0208C128.039 8.97932 128.164 9.1882 128.164 9.3556C128.206 9.77334 128.08 10.317 128.456 10.5259C129.877 9.98222 131.212 8.97932 132.8 8.81192C135.096 8.5201 137.726 8.93785 139.021 11.0703Z" fill="#565656"/>
<path fill-rule="evenodd" clip-rule="evenodd" d="M49.8214 9.9415V19.7661C49.9465 20.352 50.1137 20.8957 50.6145 21.3142C50.9489 21.7327 51.9507 21.3979 51.7835 22.1919C50.656 22.6104 49.4034 22.7763 48.2337 23.1111L48.1923 23.1948C46.814 23.4037 45.5614 23.8636 44.1831 24.1155C43.8908 23.9903 43.9323 23.5718 43.9323 23.2378C43.8908 22.9444 43.9737 22.4852 43.64 22.4015C42.6797 22.8607 41.8866 23.4881 40.8841 23.8229C38.6713 24.5755 35.5802 24.8258 33.7017 23.1541C32.282 21.8156 32.532 19.5165 32.3234 17.8018C32.407 15.8782 32.532 14.2479 32.3656 12.1999C32.2398 11.4473 31.6975 10.82 30.9044 10.6533C30.8478 10.592 30.8129 10.5137 30.8053 10.4305C30.7977 10.3473 30.8177 10.264 30.8622 10.1933L31.2381 10.0674L38.2118 9.81632C38.5462 10.2341 38.4204 10.7363 38.4626 11.1962C38.4204 13.9139 38.1704 16.9648 38.4204 19.6839C38.5876 20.6453 39.0893 21.606 40.0496 22.0245C40.927 22.4015 41.8452 22.0675 42.5554 21.5653C44.2674 20.5194 43.7658 18.2618 43.8502 16.6745L43.7666 12.4095C43.5994 11.5733 43.1407 10.8215 42.2218 10.5704C42.0553 10.5282 41.7209 10.4445 41.8045 10.1519C41.7209 9.8593 42.0553 9.8593 42.2218 9.81783C44.8112 9.81783 47.1491 9.60896 49.6972 9.60896L49.8214 9.9415ZM93.9205 1.66347L93.8369 1.87234C92.6265 2.16491 91.1224 2.54119 90.7051 3.92111C90.3715 5.04993 90.4965 6.63873 90.4965 7.8505H90.4551L90.4965 7.97642L90.4551 8.0179C90.7051 11.6555 90.2035 15.4589 90.8302 19.2217C91.0802 20.3512 91.5404 21.563 92.7101 22.023C94.8386 22.9844 97.5117 22.4837 99.1401 20.8519C100.352 19.5987 100.643 17.8433 101.061 16.2952C101.103 14.456 101.605 12.5747 102.941 11.1947C104.527 9.1045 107.284 8.68599 109.873 8.35194C111.543 8.18454 113.255 8.51935 114.883 8.81116C115.301 8.68599 115.426 8.18379 115.76 8.01714V7.89122H115.843C115.802 7.80827 116.052 7.47347 116.262 7.34754C116.72 7.18014 117.181 7.22237 117.681 7.30607C117.681 7.55717 117.473 7.72381 117.473 7.84974C117.266 8.05862 116.847 8.72822 116.596 9.18744L116.639 9.52149C119.06 11.0266 120.522 13.745 120.271 16.7122C120.104 19.3883 118.351 22.1052 115.844 23.1925C112.964 24.1969 109.288 24.3636 106.283 23.5266C105.656 23.8606 105.447 24.7813 104.736 24.948C104.403 24.9065 103.985 25.0746 103.735 24.8228C103.985 24.1132 104.82 23.611 104.736 22.8585C103.609 22.1059 102.606 20.9779 101.897 19.932C101.604 21.1867 101.729 22.4226 101.479 23.7181L101.102 23.8018H88.9924L81.1412 23.8191H71.0771C70.9106 23.7354 70.8685 23.4436 70.9521 23.2347C71.4529 22.9829 72.2468 22.8992 72.5812 22.1889L72.7898 21.4363L72.8207 14.2034C72.6942 13.3672 72.8313 12.1961 71.8702 11.8198C71.5365 11.611 70.9521 11.9035 70.8685 11.4021C70.8685 11.1932 70.9935 10.8999 71.2443 10.8999C73.6666 10.4399 76.0466 9.77108 78.5103 9.31111C79.0119 9.14371 78.9283 9.68813 79.0119 9.93848C78.8854 13.7434 78.6768 17.9662 79.0533 21.7289C79.1784 22.2726 79.6371 22.7318 80.1387 22.9407C80.7653 22.9821 81.392 22.8155 81.935 22.6066C83.0204 22.1474 83.3548 21.0178 83.4798 19.9305C83.6478 15.8329 83.5213 11.7361 83.4798 7.88971H83.5213C83.2298 6.00834 84.1479 3.58405 82.1444 2.4967C81.5178 2.28782 80.9747 2.28782 80.3481 2.16265C80.1394 1.95378 80.1801 1.5775 80.3067 1.36787C84.4816 1.2427 88.8259 1.36787 92.918 1.159C93.2095 1.24572 94.1706 0.910921 93.9205 1.66347ZM109.08 10.6111C107.577 12.6176 107.784 15.3345 107.784 17.9269C107.867 18.0951 107.784 18.3877 108.077 18.3454C109.873 16.213 111.418 13.9568 112.963 11.5725C112.837 11.1548 112.67 10.6948 112.337 10.3608C111.46 9.56522 109.789 9.73262 109.08 10.6111ZM113.338 13.9561L112.963 14.2479L108.537 20.2276L108.369 20.7283C108.41 21.189 108.619 21.649 108.996 21.983C109.622 22.6926 110.749 22.8193 111.585 22.4852C112.212 22.1082 112.755 21.4808 113.005 20.812C113.713 18.8477 113.588 16.3389 113.506 14.2064L113.338 13.9561Z" fill="#565656"/>
</g>
<defs>
<clipPath id="clip0_1_1029">
<rect width="141" height="25" fill="white" transform="translate(0.5)"/>
</clipPath>
</defs>
</svg>
