<svg width="139" height="47" viewBox="0 0 139 47" fill="none" xmlns="http://www.w3.org/2000/svg">
<g clip-path="url(#clip0_1_1019)">
<path d="M11.7593 46.8125C7.82353 46.1079 4.9256 44.2652 2.93074 41.203C0.855015 38.0053 0.0462902 34.0624 0.747185 30.5937C1.90636 24.8622 5.7478 21.3123 11.5841 20.5806C16.3017 19.9844 20.6418 21.5561 22.0166 24.3745C22.4884 25.35 22.5962 27.0573 22.2458 27.9922C21.6392 29.5639 20.2104 30.3769 17.7708 30.5259C17.2317 30.5529 16.7869 30.5666 16.7869 30.5529C16.7869 30.5529 16.9352 30.1735 17.1239 29.7264C18.3774 26.6642 15.9108 24.3472 12.4063 25.2686C10.2632 25.8243 8.38964 27.6399 7.74266 29.8214C6.96089 32.3822 8.12006 36.1219 10.2901 38.0595C11.8672 39.4822 13.6868 40.0513 16.1669 39.9158C22.0301 39.5907 25.4268 36.4607 31.1552 26.0681L32.2875 24.0357L29.8613 23.9951C28.5269 23.9814 27.4351 23.9136 27.4351 23.8596C27.4351 23.8054 27.7856 23.0195 28.2034 22.1117L28.9852 20.4586L31.6135 20.4451H34.2419L35.8863 17.3558C36.8028 15.6621 37.8137 13.7787 38.1507 13.169L38.7436 12.0715L36.2906 10.4455C29.403 5.87931 25.7098 4.51081 22.7715 5.41863C19.8196 6.34 18.1348 8.12854 18.0269 10.4997C17.9864 11.272 18.0269 11.5701 18.2559 12.0173C18.9031 13.3045 20.3318 14.2123 21.7066 14.2123C23.1489 14.2123 23.8767 13.44 24.025 11.7598L24.1059 10.9468L24.7933 11.0281C25.7907 11.1636 26.7883 11.6514 27.2464 12.2476C27.8125 13.0064 27.8666 14.1581 27.3677 15.215C25.804 18.521 20.871 19.5373 16.9217 17.3693C15.6142 16.6377 14.2529 15.1879 13.5655 13.7923C12.8511 12.3153 12.6085 11.3127 12.595 9.79513C12.595 8.29113 12.7567 7.54591 13.4173 6.1503C15.1022 2.61387 18.8897 0.2156 23.1355 0.0259068C25.656 -0.0960392 27.7587 0.473042 30.9397 2.09899C33.4063 3.3591 35.4281 4.68695 40.3883 8.26403L41.1431 8.80602L42.0732 8.10144C43.111 7.30202 44.7824 6.47549 45.9011 6.2045C46.319 6.09611 47.2894 6.01481 48.1251 6.02836C49.3246 6.02836 49.756 6.09611 50.3626 6.34C51.3331 6.71939 52.2766 7.54591 52.7483 8.44018C53.0717 9.04991 53.1123 9.28025 53.0988 10.3507C53.0988 11.3669 53.0314 11.7056 52.7483 12.3424C51.7374 14.5375 49.4865 15.6621 46.8041 15.2963C45.7258 15.1472 43.8657 14.6188 43.1918 14.28L42.8548 14.0903L41.3587 17.2745L39.8625 20.4451H43.6231L42.7065 22.2065L41.79 23.9815L40.0108 23.9409L38.2316 23.9002L36.5198 27.4908C32.6109 35.7154 30.9531 38.344 27.6103 41.5959C24.9281 44.1974 22.2054 45.7422 18.7413 46.6229C17.326 46.9751 13.3229 47.0835 11.7593 46.8125ZM48.6776 12.0579C49.7829 11.5566 50.1738 10.4049 49.4729 9.74093C49.2033 9.48349 48.9472 9.41574 48.0711 9.36155C47.1006 9.30735 46.9523 9.33445 46.3323 9.67319C45.9685 9.87643 45.4427 10.2694 45.1598 10.5539L44.6744 11.0552L45.254 11.4075C45.9549 11.814 47.3164 12.3018 47.7881 12.3018C47.9767 12.3153 48.3676 12.1934 48.6776 12.0579Z" fill="#CD1F3E"/>
<path d="M11.7593 46.8125C7.82353 46.1079 4.9256 44.2652 2.93074 41.203C0.855015 38.0053 0.0462902 34.0624 0.747185 30.5937C1.90636 24.8622 5.7478 21.3123 11.5841 20.5806C16.3017 19.9844 20.6418 21.5561 22.0166 24.3745C22.4884 25.35 22.5962 27.0573 22.2458 27.9922C21.6392 29.5639 20.2104 30.3769 17.7708 30.5259C17.2317 30.5529 16.7869 30.5666 16.7869 30.5529C16.7869 30.5529 16.9352 30.1735 17.1239 29.7264C18.3774 26.6642 15.9108 24.3472 12.4063 25.2686C10.2632 25.8243 8.38964 27.6399 7.74266 29.8214C6.96089 32.3822 8.12006 36.1219 10.2901 38.0595C11.8672 39.4822 13.6868 40.0513 16.1669 39.9158C22.0301 39.5907 25.4268 36.4607 31.1552 26.0681L32.2875 24.0357L29.8613 23.9951C28.5269 23.9814 27.4351 23.9136 27.4351 23.8596C27.4351 23.8054 27.7856 23.0195 28.2034 22.1117L28.9852 20.4586L31.6135 20.4451H34.2419L35.8863 17.3558C36.8028 15.6621 37.8137 13.7787 38.1507 13.169L38.7436 12.0715L36.2906 10.4455C29.403 5.87931 25.7098 4.51081 22.7715 5.41863C19.8196 6.34 18.1348 8.12854 18.0269 10.4997C17.9864 11.272 18.0269 11.5701 18.2559 12.0173C18.9031 13.3045 20.3318 14.2123 21.7066 14.2123C23.1489 14.2123 23.8767 13.44 24.025 11.7598L24.1059 10.9468L24.7933 11.0281C25.7907 11.1636 26.7883 11.6514 27.2464 12.2476C27.8125 13.0064 27.8666 14.1581 27.3677 15.215C25.804 18.521 20.871 19.5373 16.9217 17.3693C15.6142 16.6377 14.2529 15.1879 13.5655 13.7923C12.8511 12.3153 12.6085 11.3127 12.595 9.79513C12.595 8.29113 12.7567 7.54591 13.4173 6.1503C15.1022 2.61387 18.8897 0.2156 23.1355 0.0259068C25.656 -0.0960392 27.7587 0.473042 30.9397 2.09899C33.4063 3.3591 35.4281 4.68695 40.3883 8.26403L41.1431 8.80602L42.0732 8.10144C43.111 7.30202 44.7824 6.47549 45.9011 6.2045C46.319 6.09611 47.2894 6.01481 48.1251 6.02836C49.3246 6.02836 49.756 6.09611 50.3626 6.34C51.3331 6.71939 52.2766 7.54591 52.7483 8.44018C53.0717 9.04991 53.1123 9.28025 53.0988 10.3507C53.0988 11.3669 53.0314 11.7056 52.7483 12.3424C51.7374 14.5375 49.4865 15.6621 46.8041 15.2963C45.7258 15.1472 43.8657 14.6188 43.1918 14.28L42.8548 14.0903L41.3587 17.2745L39.8625 20.4451H43.6231L42.7065 22.2065L41.79 23.9815L40.0108 23.9409L38.2316 23.9002L36.5198 27.4908C32.6109 35.7154 30.9531 38.344 27.6103 41.5959C24.9281 44.1974 22.2054 45.7422 18.7413 46.6229C17.326 46.9751 13.3229 47.0835 11.7593 46.8125ZM48.6776 12.0579C49.7829 11.5566 50.1738 10.4049 49.4729 9.74093C49.2033 9.48349 48.9472 9.41574 48.0711 9.36155C47.1006 9.30735 46.9523 9.33445 46.3323 9.67319C45.9685 9.87643 45.4427 10.2694 45.1598 10.5539L44.6744 11.0552L45.254 11.4075C45.9549 11.814 47.3164 12.3018 47.7881 12.3018C47.9767 12.3153 48.3676 12.1934 48.6776 12.0579Z" fill="#565656"/>
<path d="M104.412 46.7309C103.469 46.3921 102.754 45.9179 102.31 45.3217C101.42 44.143 101.15 42.1647 101.743 41.1078C102.525 39.7122 104.763 38.967 105.828 39.7393C106.084 39.929 106.084 39.9425 105.828 40.3897C105.491 40.9587 105.477 41.9614 105.801 42.4627C106.138 42.9641 106.798 43.208 107.863 43.208C109.062 43.208 109.939 42.8015 110.693 41.9208C111.138 41.3923 113.969 36.2435 113.969 35.959C113.969 35.9183 113.767 36.0267 113.537 36.2164C112.823 36.7448 112.082 36.9886 111.003 37.07C110.195 37.1107 109.898 37.0837 109.521 36.8805C108.941 36.5822 108.469 35.8778 108.361 35.1868C108.308 34.9021 108.227 34.6311 108.173 34.604C108.119 34.5634 107.809 34.7395 107.485 34.9835C106.582 35.6746 105.302 36.4198 104.372 36.799C102.929 37.3817 101.474 37.0971 100.369 35.9997C100.112 35.7557 99.8159 35.39 99.6946 35.2003L99.4789 34.848L98.2793 35.566C96.2036 36.8263 94.3031 37.2462 93.1439 36.7177C92.6316 36.4875 91.7017 35.5933 91.5669 35.2003C91.5265 35.0784 91.2704 35.2273 90.7312 35.7015C89.289 37.0024 87.5772 37.5444 86.2967 37.1242C85.5554 36.8669 84.6255 36.1894 84.3018 35.6475C84.1266 35.3765 83.9918 35.1326 83.9649 35.1055C83.9514 35.0784 83.6549 35.2816 83.2909 35.5526C80.9458 37.3548 77.8051 37.6392 76.7268 36.1488C75.8102 34.8751 76.2416 33.3034 78.7351 28.9675C79.9752 26.8132 80.1773 26.3389 80.083 25.9189C79.9617 25.4582 79.436 25.4987 78.6273 26.0136C77.3065 26.8672 76.8482 27.5582 74.476 32.4225L72.252 36.9616H70.2706C69.1653 36.9752 68.2757 36.9345 68.2757 36.8803C68.2757 36.8395 68.5858 36.2164 68.9632 35.5117L69.6371 34.2245L69.1249 34.631C67.7501 35.7286 65.58 36.826 64.0839 37.1783C61.9947 37.6661 60.4042 37.1376 59.6495 35.7149L59.326 35.1189L58.989 35.4439C58.4768 35.9319 56.9807 36.8937 56.2933 37.1647C55.4846 37.4764 54.1906 37.5848 53.4493 37.3815C52.7214 37.1918 51.7644 36.2706 51.6296 35.6336L51.5353 35.2136L50.9287 35.7556C49.2439 37.246 46.966 37.91 45.7664 37.2596C45.4968 37.1241 45.1733 36.7718 44.9845 36.4196C44.7014 35.8912 44.6745 35.7014 44.7285 34.6718C44.8094 33.222 44.9577 32.8697 46.8851 29.2926C47.7476 27.7208 48.57 26.1899 48.7047 25.9052L48.9743 25.3903H48.1386C47.6938 25.3903 47.0469 25.3497 46.7099 25.2819L46.1033 25.1871L43.2863 31.0811L40.4691 36.9752H38.1912C36.9511 36.9752 35.9268 36.9345 35.9268 36.8939C35.9268 36.8397 36.2501 36.2706 36.6545 35.6336C38.5147 32.6258 42.1538 26.2167 44.0543 22.5854L45.1596 20.4581L47.087 20.4446C48.2732 20.4446 49.001 20.4988 49.001 20.5801C49.001 20.6614 48.9067 20.7156 48.7988 20.7156C48.5966 20.7156 48.1923 21.366 48.1923 21.7047C48.1923 21.9757 48.6371 22.3415 48.9874 22.3415C49.1491 22.3415 49.6613 22.1789 50.1196 21.9892C51.2923 21.4879 52.4245 21.4066 53.1523 21.786C53.8532 22.1383 54.0284 22.477 53.9611 23.29C53.9071 23.7913 53.4354 24.7804 51.6427 28.0865C49.85 31.3654 49.3918 32.3004 49.4592 32.5714C49.6344 33.2489 50.6318 33.0999 51.6023 32.2327C52.411 31.5281 53.1658 30.2274 55.282 25.9728L57.2903 21.935H59.2852C60.3904 21.935 61.2665 21.9892 61.2396 22.0434C61.226 22.1112 60.2824 23.981 59.1504 26.2167C57.0342 30.4171 56.549 31.5825 56.549 32.4766C56.549 33.2355 56.8049 33.4115 57.6003 33.1947C58.5302 32.9508 59.1099 32.4632 59.1099 31.9075C59.1099 31.1623 59.6221 29.3739 60.1746 28.2356C61.3742 25.7154 63.733 23.4119 66.4558 22.1112C68.8551 20.973 71.025 21.2711 71.9147 22.8835C72.5213 23.9946 72.2652 25.9728 71.3082 27.5039C70.2299 29.1976 67.2376 31.2165 64.5552 32.043C64.1239 32.1785 63.7465 32.3004 63.7195 32.314C63.693 32.3277 63.7604 32.5445 63.8682 32.8019C64.003 33.1136 64.2186 33.3302 64.5017 33.4523C65.6609 33.9265 68.4105 32.6122 71.1198 30.2952C71.7263 29.7804 71.9824 29.3603 73.7481 25.8374L75.6891 21.9352H79.5844L79.3822 22.4094C79.2879 22.6669 79.1937 22.8972 79.1937 22.9243C79.1937 22.9514 79.6923 22.7211 80.3124 22.3959C82.4825 21.2712 84.1673 21.0816 84.9895 21.8674C85.6096 22.4772 85.7577 23.114 85.4748 24.1167C85.1782 25.2006 84.9087 25.7291 82.8195 29.2114C81.4311 31.5419 81.0808 32.233 81.1077 32.5582C81.1482 32.9646 81.175 32.9782 81.7681 32.9646C82.2264 32.9646 82.5634 32.8561 83.0621 32.5311C83.7092 32.1109 83.7225 32.0975 83.8844 31.1219C84.5179 27.45 87.7258 22.9651 90.7316 21.5695C91.8773 21.041 93.1308 21.041 94.1283 21.5966C94.5326 21.8134 94.9639 22.1386 95.0987 22.3147L95.3547 22.6399L97.5787 18.155L99.8163 13.6836L102.04 13.643C103.766 13.6159 104.251 13.643 104.197 13.7649C104.17 13.8598 102.768 16.4884 101.083 19.5912C96.8104 27.4906 95.5299 30.2412 95.2873 32.0568C95.2199 32.5851 95.2603 32.775 95.4625 33.0324C95.6917 33.3169 95.7591 33.3304 96.2444 33.1949C96.5408 33.1136 97.2417 32.7884 97.7945 32.4633L98.8054 31.8807L98.8996 30.783C99.1154 28.1546 99.8431 25.5665 101.097 22.9107C103.267 18.3581 106.515 14.3881 109.17 13.0467C111.772 11.7459 113.969 13.1686 113.969 16.1631C113.969 18.0465 113.416 19.3066 111.044 22.8836C108.348 26.935 106.353 29.401 104.561 30.9185C103.617 31.7044 103.563 31.7722 103.644 32.2057C103.738 32.8292 104.075 33.1813 104.574 33.1813C105.545 33.1813 107.863 31.4063 109.184 29.6178C109.534 29.1571 110.586 27.2329 111.529 25.3632L113.227 21.9352H115.546C116.826 21.9352 117.878 21.9623 117.878 22.0029C117.878 22.03 117.608 22.4772 117.284 22.9785C115.546 25.702 113.012 30.4848 112.756 31.5418C112.54 32.4495 112.621 32.6393 113.254 32.6393C114.386 32.6258 115.68 31.6638 116.799 29.9836C117.163 29.4686 118.241 27.4362 119.212 25.4852L120.978 21.9352H123.215C124.954 21.9352 125.439 21.9758 125.385 22.1113C125.345 22.1926 124.698 23.3172 123.956 24.5773C123.202 25.851 120.978 30.0785 119.023 33.9943C117.082 37.9101 115.114 41.6633 114.669 42.3544C113.227 44.5629 111.556 46.0127 109.709 46.6631C108.901 46.9477 108.55 47.0018 106.96 46.9883C105.491 46.9883 104.992 46.9341 104.412 46.7309ZM89.8417 32.8155C90.4618 32.3819 90.7583 31.8941 92.0792 29.2248C93.1171 27.0976 93.3867 26.4336 93.4001 25.9458C93.4138 25.1329 93.0362 24.7128 92.4162 24.8483C91.2974 25.0922 89.1678 28.2222 88.3726 30.7966C88.0356 31.8941 88.0086 32.5443 88.3052 32.829C88.5881 33.1136 89.4239 33.1 89.8417 32.8155ZM67.2917 27.4227C68.451 26.271 68.8823 25.5529 68.7339 24.9838C68.5048 24.076 67.1975 24.5773 65.9573 26.0542C65.2564 26.8942 64.2588 28.6016 64.0298 29.3739C63.9355 29.6718 64.0029 29.6584 65.0675 29.1029C65.8764 28.6693 66.4829 28.2086 67.2917 27.4227ZM106.138 25.1193C107.89 22.9107 110.006 19.4421 110.532 17.9381C110.855 17.0031 110.734 16.5154 110.195 16.5154C109.709 16.5154 109.184 17.0167 107.89 18.6833C105.612 21.6235 104.183 24.6044 103.792 27.2737L103.684 27.9241L104.493 27.0705C104.924 26.5962 105.666 25.7155 106.138 25.1193ZM119.549 39.4412C118.767 39.0754 118.376 38.4521 118.309 37.5172C118.241 36.65 118.43 36.1758 119.05 35.6067C120.856 33.9265 123.754 35.9724 122.757 38.2217C122.204 39.4818 120.789 40.0103 119.549 39.4412ZM121.382 38.9399C121.678 38.7637 121.692 38.7502 121.449 38.7366C121.274 38.7366 121.072 38.5605 120.91 38.2488C120.775 37.9914 120.546 37.7069 120.412 37.6391C120.196 37.5172 120.169 37.5714 120.169 38.1269C120.169 38.6419 120.128 38.7366 119.899 38.7366C119.643 38.7366 119.63 38.6419 119.63 37.3004V35.8641L120.452 35.9182C121.112 35.9722 121.342 36.04 121.53 36.284C121.867 36.7041 121.854 36.9207 121.463 37.3138L121.139 37.639L121.463 38.1132C121.652 38.3842 121.827 38.601 121.854 38.601C122.002 38.601 122.326 37.7611 122.326 37.3815C122.326 36.3247 121.625 35.5931 120.627 35.5659C119.225 35.5389 118.39 37.1918 119.185 38.425C119.616 39.0754 120.708 39.3328 121.382 38.9399ZM121.045 36.7719C121.045 36.5687 120.937 36.4874 120.614 36.4603C120.209 36.4197 120.169 36.4466 120.169 36.7719C120.169 37.0973 120.209 37.1242 120.614 37.0837C120.937 37.0565 121.045 36.9752 121.045 36.7719ZM128.566 37.1107C126.787 36.7855 125.399 35.8777 124.752 34.5905C124.253 33.6149 124.266 32.2328 124.779 31.447C125.237 30.7558 125.614 30.4985 126.382 30.363C128.135 30.0514 130.372 31.0134 130.076 31.9618C130.022 32.1515 129.873 32.2328 129.604 32.2328C128.93 32.2328 128.472 33.0052 128.768 33.6555C128.957 34.062 129.847 34.5363 130.426 34.5363C131.464 34.5363 132.704 33.3574 132.704 32.3548C132.704 31.6773 132.273 31.176 130.642 29.9836C128.283 28.2491 127.69 27.4362 127.676 25.9323C127.649 24.618 128.013 23.7779 129.051 22.7346C130.264 21.5287 130.709 21.3661 133.337 21.2848C135.184 21.2306 135.494 21.2577 136.37 21.5287C137.125 21.759 137.475 21.9487 137.92 22.4094C138.486 22.9785 138.5 22.992 138.5 23.927C138.5 25.6478 137.651 26.6775 136.249 26.6775C134.874 26.6775 134.052 26.0407 134.052 24.9703C134.052 24.4824 134.133 24.3063 134.524 23.927C134.995 23.4663 134.995 23.4527 134.699 23.3714C133.553 23.0733 132.111 23.7237 132.03 24.5773C131.949 25.3497 132.057 25.4987 134.038 27.4634C136.653 30.0515 137.085 30.8645 136.667 32.4496C136.128 34.5634 134.456 36.2571 132.3 36.8939C131.383 37.1649 129.496 37.2733 128.566 37.1107ZM125.83 23.7644C125.83 23.3985 125.965 23.1411 126.477 22.5856C126.827 22.1926 127.259 21.6642 127.42 21.4338C127.69 21.0545 127.704 20.9867 127.515 20.9867C127.151 20.9867 126.41 20.1466 126.248 19.564C125.938 18.4123 126.153 17.369 126.881 16.6102C127.42 16.0411 127.892 15.8379 128.701 15.8379C129.51 15.8379 130.103 16.1495 130.601 16.827C131.033 17.4232 130.979 18.6697 130.494 19.6318C129.779 21.0138 128.175 22.8294 126.787 23.8186C126.005 24.3741 125.83 24.3605 125.83 23.7644Z" fill="#CD1F3E"/>
<path d="M104.412 46.7309C103.469 46.3921 102.754 45.9179 102.31 45.3217C101.42 44.143 101.15 42.1647 101.743 41.1078C102.525 39.7122 104.763 38.967 105.828 39.7393C106.084 39.929 106.084 39.9425 105.828 40.3897C105.491 40.9587 105.477 41.9614 105.801 42.4627C106.138 42.9641 106.798 43.208 107.863 43.208C109.062 43.208 109.939 42.8015 110.693 41.9208C111.138 41.3923 113.969 36.2435 113.969 35.959C113.969 35.9183 113.767 36.0267 113.537 36.2164C112.823 36.7448 112.082 36.9886 111.003 37.07C110.195 37.1107 109.898 37.0837 109.521 36.8805C108.941 36.5822 108.469 35.8778 108.361 35.1868C108.308 34.9021 108.227 34.6311 108.173 34.604C108.119 34.5634 107.809 34.7395 107.485 34.9835C106.582 35.6746 105.302 36.4198 104.372 36.799C102.929 37.3817 101.474 37.0971 100.369 35.9997C100.112 35.7557 99.8159 35.39 99.6946 35.2003L99.4789 34.848L98.2793 35.566C96.2036 36.8263 94.3031 37.2462 93.1439 36.7177C92.6316 36.4875 91.7017 35.5933 91.5669 35.2003C91.5265 35.0784 91.2704 35.2273 90.7312 35.7015C89.289 37.0024 87.5772 37.5444 86.2967 37.1242C85.5554 36.8669 84.6255 36.1894 84.3018 35.6475C84.1266 35.3765 83.9918 35.1326 83.9649 35.1055C83.9514 35.0784 83.6549 35.2816 83.2909 35.5526C80.9458 37.3548 77.8051 37.6392 76.7268 36.1488C75.8102 34.8751 76.2416 33.3034 78.7351 28.9675C79.9752 26.8132 80.1773 26.3389 80.083 25.9189C79.9617 25.4582 79.436 25.4987 78.6273 26.0136C77.3065 26.8672 76.8482 27.5582 74.476 32.4225L72.252 36.9616H70.2706C69.1653 36.9752 68.2757 36.9345 68.2757 36.8803C68.2757 36.8395 68.5858 36.2164 68.9632 35.5117L69.6371 34.2245L69.1249 34.631C67.7501 35.7286 65.58 36.826 64.0839 37.1783C61.9947 37.6661 60.4042 37.1376 59.6495 35.7149L59.326 35.1189L58.989 35.4439C58.4768 35.9319 56.9807 36.8937 56.2933 37.1647C55.4846 37.4764 54.1906 37.5848 53.4493 37.3815C52.7214 37.1918 51.7644 36.2706 51.6296 35.6336L51.5353 35.2136L50.9287 35.7556C49.2439 37.246 46.966 37.91 45.7664 37.2596C45.4968 37.1241 45.1733 36.7718 44.9845 36.4196C44.7014 35.8912 44.6745 35.7014 44.7285 34.6718C44.8094 33.222 44.9577 32.8697 46.8851 29.2926C47.7476 27.7208 48.57 26.1899 48.7047 25.9052L48.9743 25.3903H48.1386C47.6938 25.3903 47.0469 25.3497 46.7099 25.2819L46.1033 25.1871L43.2863 31.0811L40.4691 36.9752H38.1912C36.9511 36.9752 35.9268 36.9345 35.9268 36.8939C35.9268 36.8397 36.2501 36.2706 36.6545 35.6336C38.5147 32.6258 42.1538 26.2167 44.0543 22.5854L45.1596 20.4581L47.087 20.4446C48.2732 20.4446 49.001 20.4988 49.001 20.5801C49.001 20.6614 48.9067 20.7156 48.7988 20.7156C48.5966 20.7156 48.1923 21.366 48.1923 21.7047C48.1923 21.9757 48.6371 22.3415 48.9874 22.3415C49.1491 22.3415 49.6613 22.1789 50.1196 21.9892C51.2923 21.4879 52.4245 21.4066 53.1523 21.786C53.8532 22.1383 54.0284 22.477 53.9611 23.29C53.9071 23.7913 53.4354 24.7804 51.6427 28.0865C49.85 31.3654 49.3918 32.3004 49.4592 32.5714C49.6344 33.2489 50.6318 33.0999 51.6023 32.2327C52.411 31.5281 53.1658 30.2274 55.282 25.9728L57.2903 21.935H59.2852C60.3904 21.935 61.2665 21.9892 61.2396 22.0434C61.226 22.1112 60.2824 23.981 59.1504 26.2167C57.0342 30.4171 56.549 31.5825 56.549 32.4766C56.549 33.2355 56.8049 33.4115 57.6003 33.1947C58.5302 32.9508 59.1099 32.4632 59.1099 31.9075C59.1099 31.1623 59.6221 29.3739 60.1746 28.2356C61.3742 25.7154 63.733 23.4119 66.4558 22.1112C68.8551 20.973 71.025 21.2711 71.9147 22.8835C72.5213 23.9946 72.2652 25.9728 71.3082 27.5039C70.2299 29.1976 67.2376 31.2165 64.5552 32.043C64.1239 32.1785 63.7465 32.3004 63.7195 32.314C63.693 32.3277 63.7604 32.5445 63.8682 32.8019C64.003 33.1136 64.2186 33.3302 64.5017 33.4523C65.6609 33.9265 68.4105 32.6122 71.1198 30.2952C71.7263 29.7804 71.9824 29.3603 73.7481 25.8374L75.6891 21.9352H79.5844L79.3822 22.4094C79.2879 22.6669 79.1937 22.8972 79.1937 22.9243C79.1937 22.9514 79.6923 22.7211 80.3124 22.3959C82.4825 21.2712 84.1673 21.0816 84.9895 21.8674C85.6096 22.4772 85.7577 23.114 85.4748 24.1167C85.1782 25.2006 84.9087 25.7291 82.8195 29.2114C81.4311 31.5419 81.0808 32.233 81.1077 32.5582C81.1482 32.9646 81.175 32.9782 81.7681 32.9646C82.2264 32.9646 82.5634 32.8561 83.0621 32.5311C83.7092 32.1109 83.7225 32.0975 83.8844 31.1219C84.5179 27.45 87.7258 22.9651 90.7316 21.5695C91.8773 21.041 93.1308 21.041 94.1283 21.5966C94.5326 21.8134 94.9639 22.1386 95.0987 22.3147L95.3547 22.6399L97.5787 18.155L99.8163 13.6836L102.04 13.643C103.766 13.6159 104.251 13.643 104.197 13.7649C104.17 13.8598 102.768 16.4884 101.083 19.5912C96.8104 27.4906 95.5299 30.2412 95.2873 32.0568C95.2199 32.5851 95.2603 32.775 95.4625 33.0324C95.6917 33.3169 95.7591 33.3304 96.2444 33.1949C96.5408 33.1136 97.2417 32.7884 97.7945 32.4633L98.8054 31.8807L98.8996 30.783C99.1154 28.1546 99.8431 25.5665 101.097 22.9107C103.267 18.3581 106.515 14.3881 109.17 13.0467C111.772 11.7459 113.969 13.1686 113.969 16.1631C113.969 18.0465 113.416 19.3066 111.044 22.8836C108.348 26.935 106.353 29.401 104.561 30.9185C103.617 31.7044 103.563 31.7722 103.644 32.2057C103.738 32.8292 104.075 33.1813 104.574 33.1813C105.545 33.1813 107.863 31.4063 109.184 29.6178C109.534 29.1571 110.586 27.2329 111.529 25.3632L113.227 21.9352H115.546C116.826 21.9352 117.878 21.9623 117.878 22.0029C117.878 22.03 117.608 22.4772 117.284 22.9785C115.546 25.702 113.012 30.4848 112.756 31.5418C112.54 32.4495 112.621 32.6393 113.254 32.6393C114.386 32.6258 115.68 31.6638 116.799 29.9836C117.163 29.4686 118.241 27.4362 119.212 25.4852L120.978 21.9352H123.215C124.954 21.9352 125.439 21.9758 125.385 22.1113C125.345 22.1926 124.698 23.3172 123.956 24.5773C123.202 25.851 120.978 30.0785 119.023 33.9943C117.082 37.9101 115.114 41.6633 114.669 42.3544C113.227 44.5629 111.556 46.0127 109.709 46.6631C108.901 46.9477 108.55 47.0018 106.96 46.9883C105.491 46.9883 104.992 46.9341 104.412 46.7309ZM89.8417 32.8155C90.4618 32.3819 90.7583 31.8941 92.0792 29.2248C93.1171 27.0976 93.3867 26.4336 93.4001 25.9458C93.4138 25.1329 93.0362 24.7128 92.4162 24.8483C91.2974 25.0922 89.1678 28.2222 88.3726 30.7966C88.0356 31.8941 88.0086 32.5443 88.3052 32.829C88.5881 33.1136 89.4239 33.1 89.8417 32.8155ZM67.2917 27.4227C68.451 26.271 68.8823 25.5529 68.7339 24.9838C68.5048 24.076 67.1975 24.5773 65.9573 26.0542C65.2564 26.8942 64.2588 28.6016 64.0298 29.3739C63.9355 29.6718 64.0029 29.6584 65.0675 29.1029C65.8764 28.6693 66.4829 28.2086 67.2917 27.4227ZM106.138 25.1193C107.89 22.9107 110.006 19.4421 110.532 17.9381C110.855 17.0031 110.734 16.5154 110.195 16.5154C109.709 16.5154 109.184 17.0167 107.89 18.6833C105.612 21.6235 104.183 24.6044 103.792 27.2737L103.684 27.9241L104.493 27.0705C104.924 26.5962 105.666 25.7155 106.138 25.1193ZM119.549 39.4412C118.767 39.0754 118.376 38.4521 118.309 37.5172C118.241 36.65 118.43 36.1758 119.05 35.6067C120.856 33.9265 123.754 35.9724 122.757 38.2217C122.204 39.4818 120.789 40.0103 119.549 39.4412ZM121.382 38.9399C121.678 38.7637 121.692 38.7502 121.449 38.7366C121.274 38.7366 121.072 38.5605 120.91 38.2488C120.775 37.9914 120.546 37.7069 120.412 37.6391C120.196 37.5172 120.169 37.5714 120.169 38.1269C120.169 38.6419 120.128 38.7366 119.899 38.7366C119.643 38.7366 119.63 38.6419 119.63 37.3004V35.8641L120.452 35.9182C121.112 35.9722 121.342 36.04 121.53 36.284C121.867 36.7041 121.854 36.9207 121.463 37.3138L121.139 37.639L121.463 38.1132C121.652 38.3842 121.827 38.601 121.854 38.601C122.002 38.601 122.326 37.7611 122.326 37.3815C122.326 36.3247 121.625 35.5931 120.627 35.5659C119.225 35.5389 118.39 37.1918 119.185 38.425C119.616 39.0754 120.708 39.3328 121.382 38.9399ZM121.045 36.7719C121.045 36.5687 120.937 36.4874 120.614 36.4603C120.209 36.4197 120.169 36.4466 120.169 36.7719C120.169 37.0973 120.209 37.1242 120.614 37.0837C120.937 37.0565 121.045 36.9752 121.045 36.7719ZM128.566 37.1107C126.787 36.7855 125.399 35.8777 124.752 34.5905C124.253 33.6149 124.266 32.2328 124.779 31.447C125.237 30.7558 125.614 30.4985 126.382 30.363C128.135 30.0514 130.372 31.0134 130.076 31.9618C130.022 32.1515 129.873 32.2328 129.604 32.2328C128.93 32.2328 128.472 33.0052 128.768 33.6555C128.957 34.062 129.847 34.5363 130.426 34.5363C131.464 34.5363 132.704 33.3574 132.704 32.3548C132.704 31.6773 132.273 31.176 130.642 29.9836C128.283 28.2491 127.69 27.4362 127.676 25.9323C127.649 24.618 128.013 23.7779 129.051 22.7346C130.264 21.5287 130.709 21.3661 133.337 21.2848C135.184 21.2306 135.494 21.2577 136.37 21.5287C137.125 21.759 137.475 21.9487 137.92 22.4094C138.486 22.9785 138.5 22.992 138.5 23.927C138.5 25.6478 137.651 26.6775 136.249 26.6775C134.874 26.6775 134.052 26.0407 134.052 24.9703C134.052 24.4824 134.133 24.3063 134.524 23.927C134.995 23.4663 134.995 23.4527 134.699 23.3714C133.553 23.0733 132.111 23.7237 132.03 24.5773C131.949 25.3497 132.057 25.4987 134.038 27.4634C136.653 30.0515 137.085 30.8645 136.667 32.4496C136.128 34.5634 134.456 36.2571 132.3 36.8939C131.383 37.1649 129.496 37.2733 128.566 37.1107ZM125.83 23.7644C125.83 23.3985 125.965 23.1411 126.477 22.5856C126.827 22.1926 127.259 21.6642 127.42 21.4338C127.69 21.0545 127.704 20.9867 127.515 20.9867C127.151 20.9867 126.41 20.1466 126.248 19.564C125.938 18.4123 126.153 17.369 126.881 16.6102C127.42 16.0411 127.892 15.8379 128.701 15.8379C129.51 15.8379 130.103 16.1495 130.601 16.827C131.033 17.4232 130.979 18.6697 130.494 19.6318C129.779 21.0138 128.175 22.8294 126.787 23.8186C126.005 24.3741 125.83 24.3605 125.83 23.7644Z" fill="#565656"/>
<path d="M60.2562 20.7293C59.124 20.4312 58.4366 19.7808 58.3422 18.9136C58.2748 18.3717 58.3152 18.2633 58.76 17.7619C60.6607 15.6618 64.8391 17.4096 63.4372 19.7131C62.9654 20.4854 61.321 21.0138 60.2562 20.7293Z" fill="#CD1F3E"/>
<path d="M60.2562 20.7293C59.124 20.4312 58.4366 19.7808 58.3422 18.9136C58.2748 18.3717 58.3152 18.2633 58.76 17.7619C60.6607 15.6618 64.8391 17.4096 63.4372 19.7131C62.9654 20.4854 61.321 21.0138 60.2562 20.7293Z" fill="#565656"/>
</g>
<defs>
<clipPath id="clip0_1_1019">
<rect width="138" height="47" fill="white" transform="translate(0.5)"/>
</clipPath>
</defs>
</svg>
