<svg width="131" height="23" viewBox="0 0 131 23" fill="none" xmlns="http://www.w3.org/2000/svg">
<g clip-path="url(#clip0_1_1024)">
<path d="M11.7217 0.410278C14.027 0.41253 16.2768 1.12125 18.168 2.43958H10.5938C10.098 2.43958 9.69248 2.755 9.69238 3.11536C9.69238 3.56604 10.2333 3.74719 10.5938 3.74719H19.7451C20.331 4.3783 20.8717 5.05487 21.3223 5.77551H12.3516C11.8557 5.77551 11.4951 6.04596 11.4951 6.40637C11.4951 6.90219 12.0363 7.08313 12.3516 7.08313H21.999C22.269 7.71411 22.4943 8.39027 22.6748 9.11145H13.6592C13.1634 9.11145 12.7579 9.38195 12.7578 9.74231C12.7578 10.193 13.2988 10.4191 13.6592 10.4191H22.8555C22.8999 10.7794 22.9443 11.1408 22.9443 11.5011C22.9443 11.7717 22.9445 12.0873 22.8994 12.3566H14.6504C14.1547 12.3566 13.7492 12.6727 13.749 13.0323C13.749 13.4837 14.29 13.6642 14.6504 13.6642H22.7197C22.5846 14.3616 22.3729 15.0423 22.0889 15.6935H15.3721C14.8762 15.6935 14.4707 16.0084 14.4707 16.3243C14.4708 16.8193 15.0117 17.0001 15.3721 17.0001H21.458C21.0129 17.7235 20.4991 18.4027 19.9248 19.0284H15.6426C15.1469 19.0285 14.7413 19.3442 14.7412 19.7052C14.7412 20.1107 15.2822 20.336 15.6426 20.3361H18.4834C16.5898 21.7332 14.2451 22.5899 11.7217 22.59C5.54549 22.59 0.541085 17.5853 0.541016 11.5001C0.541016 5.41486 5.54544 0.410278 11.7217 0.410278ZM38.0469 0.906372C44.5382 0.906372 49.8123 5.54993 49.8125 11.3204C49.8125 16.9995 44.5384 21.6886 38.0469 21.6886C31.5554 21.6885 26.2363 16.9994 26.2363 11.3204C26.2366 5.54928 31.5556 0.906449 38.0469 0.906372ZM92.6377 0.906372C99.1289 0.906537 104.403 5.55003 104.403 11.3204C104.403 16.9994 99.1283 21.6884 92.6377 21.6886C86.1469 21.6886 80.8721 16.9995 80.8721 11.3204C80.8723 5.54924 86.1463 0.906372 92.6377 0.906372ZM78.2119 21.0577H73.4785V1.17688H78.2119V21.0577ZM63.7412 1.17688C66.4009 1.17688 69.7825 3.2956 69.8721 6.49622C69.9629 9.60631 67.6192 11.3643 64.2383 11.8595L70.3682 21.0568H65.5L58.7383 10.6427H61.1279C63.8769 10.6426 65.545 8.7495 65.5 6.63098C65.5 4.15189 63.8318 2.43861 60.4062 2.4386H57.5664V21.0568H52.8789V1.17688H63.7412ZM123.562 14.6105V1.17688H125.771V21.0568H123.562L109.226 5.50403V21.0568H107.018V1.17688H111.436L123.562 14.6105ZM38.1377 2.16809C33.1337 2.16813 31.2852 6.27093 31.2852 11.2736C31.2852 16.2317 33.1344 20.2901 38.1377 20.2902C43.141 20.2902 44.9443 16.2325 44.9443 11.2736C44.9443 6.2709 43.1417 2.16809 38.1377 2.16809ZM92.7275 2.16809C87.7242 2.16809 85.877 6.2709 85.877 11.2736C85.877 16.2318 87.7242 20.2902 92.7275 20.2902C97.7322 20.2901 99.5811 16.2324 99.5811 11.2736C99.5811 6.27095 97.7322 2.16817 92.7275 2.16809ZM128.791 1.44739H128.341V2.66516H128.024V1.44739H127.574V1.17688H128.791V1.44739ZM129.738 2.16809L130.007 1.17688H130.459V2.66516H130.188V1.49231L129.873 2.66516H129.603L129.287 1.49231V2.66516H128.971V1.17688H129.468L129.738 2.16809Z" fill="#D32020"/>
<path d="M11.7217 0.410278C14.027 0.41253 16.2768 1.12125 18.168 2.43958H10.5938C10.098 2.43958 9.69248 2.755 9.69238 3.11536C9.69238 3.56604 10.2333 3.74719 10.5938 3.74719H19.7451C20.331 4.3783 20.8717 5.05487 21.3223 5.77551H12.3516C11.8557 5.77551 11.4951 6.04596 11.4951 6.40637C11.4951 6.90219 12.0363 7.08313 12.3516 7.08313H21.999C22.269 7.71411 22.4943 8.39027 22.6748 9.11145H13.6592C13.1634 9.11145 12.7579 9.38195 12.7578 9.74231C12.7578 10.193 13.2988 10.4191 13.6592 10.4191H22.8555C22.8999 10.7794 22.9443 11.1408 22.9443 11.5011C22.9443 11.7717 22.9445 12.0873 22.8994 12.3566H14.6504C14.1547 12.3566 13.7492 12.6727 13.749 13.0323C13.749 13.4837 14.29 13.6642 14.6504 13.6642H22.7197C22.5846 14.3616 22.3729 15.0423 22.0889 15.6935H15.3721C14.8762 15.6935 14.4707 16.0084 14.4707 16.3243C14.4708 16.8193 15.0117 17.0001 15.3721 17.0001H21.458C21.0129 17.7235 20.4991 18.4027 19.9248 19.0284H15.6426C15.1469 19.0285 14.7413 19.3442 14.7412 19.7052C14.7412 20.1107 15.2822 20.336 15.6426 20.3361H18.4834C16.5898 21.7332 14.2451 22.5899 11.7217 22.59C5.54549 22.59 0.541085 17.5853 0.541016 11.5001C0.541016 5.41486 5.54544 0.410278 11.7217 0.410278ZM38.0469 0.906372C44.5382 0.906372 49.8123 5.54993 49.8125 11.3204C49.8125 16.9995 44.5384 21.6886 38.0469 21.6886C31.5554 21.6885 26.2363 16.9994 26.2363 11.3204C26.2366 5.54928 31.5556 0.906449 38.0469 0.906372ZM92.6377 0.906372C99.1289 0.906537 104.403 5.55003 104.403 11.3204C104.403 16.9994 99.1283 21.6884 92.6377 21.6886C86.1469 21.6886 80.8721 16.9995 80.8721 11.3204C80.8723 5.54924 86.1463 0.906372 92.6377 0.906372ZM78.2119 21.0577H73.4785V1.17688H78.2119V21.0577ZM63.7412 1.17688C66.4009 1.17688 69.7825 3.2956 69.8721 6.49622C69.9629 9.60631 67.6192 11.3643 64.2383 11.8595L70.3682 21.0568H65.5L58.7383 10.6427H61.1279C63.8769 10.6426 65.545 8.7495 65.5 6.63098C65.5 4.15189 63.8318 2.43861 60.4062 2.4386H57.5664V21.0568H52.8789V1.17688H63.7412ZM123.562 14.6105V1.17688H125.771V21.0568H123.562L109.226 5.50403V21.0568H107.018V1.17688H111.436L123.562 14.6105ZM38.1377 2.16809C33.1337 2.16813 31.2852 6.27093 31.2852 11.2736C31.2852 16.2317 33.1344 20.2901 38.1377 20.2902C43.141 20.2902 44.9443 16.2325 44.9443 11.2736C44.9443 6.2709 43.1417 2.16809 38.1377 2.16809ZM92.7275 2.16809C87.7242 2.16809 85.877 6.2709 85.877 11.2736C85.877 16.2318 87.7242 20.2902 92.7275 20.2902C97.7322 20.2901 99.5811 16.2324 99.5811 11.2736C99.5811 6.27095 97.7322 2.16817 92.7275 2.16809ZM128.791 1.44739H128.341V2.66516H128.024V1.44739H127.574V1.17688H128.791V1.44739ZM129.738 2.16809L130.007 1.17688H130.459V2.66516H130.188V1.49231L129.873 2.66516H129.603L129.287 1.49231V2.66516H128.971V1.17688H129.468L129.738 2.16809Z" fill="#565656"/>
</g>
<defs>
<clipPath id="clip0_1_1024">
<rect width="130" height="22.2735" fill="white" transform="translate(0.5 0.363281)"/>
</clipPath>
</defs>
</svg>
