<svg width="131" height="33" viewBox="0 0 131 33" fill="none" xmlns="http://www.w3.org/2000/svg">
<g clip-path="url(#clip0_1_1006)">
<path fill-rule="evenodd" clip-rule="evenodd" d="M23.7156 21.57C21.4934 23.3685 17.5452 25.581 14.6352 25.581C14.1375 25.581 13.7138 25.3267 13.5348 24.86L15.8731 22.4049V17.2417C15.8731 16.8919 15.7467 15.7279 16.3183 15.7279C16.7413 15.7279 17.398 16.1405 18.3076 16.1405C21.7367 16.1405 24.2983 13.5057 24.2983 10.1188C24.2983 9.90726 24.2554 9.70611 24.1608 9.51532L23.9071 9.63216L22.8592 10.2674C22.2137 10.6586 21.452 10.913 20.6895 10.913C19.0811 10.913 17.6842 9.65361 17.3455 9.65361C16.9854 9.65361 16.6999 10.0663 16.3191 10.0663C15.7371 10.0663 15.8643 8.53178 15.8643 8.18273C15.8643 7.91799 15.8532 6.96551 16.2873 6.96551C16.3398 6.96551 16.3827 6.97586 16.4248 6.97586L17.3559 7.13411C17.642 7.17701 17.9378 7.19772 18.2344 7.19772C19.9175 7.19772 21.6849 6.50924 22.8171 5.23951C23.6431 4.32918 24.3309 2.94261 24.3309 1.68323C24.3309 1.30165 24.2458 0.9208 24.1615 0.561401C23.1454 1.34454 22.0872 2.03228 20.7531 2.03228C19.473 2.03228 18.3616 1.37634 17.3773 0.635356L17.2819 0.561401L9.9475 7.36632V22.4049C9.9475 22.7658 10.0532 23.7715 9.47126 23.7715C9.00537 23.7715 8.45518 22.8301 8.26439 22.5543C6.88891 20.6071 6.36978 18.1402 6.36978 15.7915C6.36978 12.1613 7.60845 8.36169 9.9682 5.5782C10.349 5.13376 10.7513 4.68858 11.0161 4.18128C9.72491 4.73147 8.53948 5.32455 7.44945 6.24523C3.72383 9.37851 0.516602 13.9923 0.516602 18.9987C0.516602 25.6979 5.79814 31.4342 12.5395 31.4342C17.0379 31.4342 20.657 28.9369 22.9539 25.1684C23.5566 24.1952 24.2554 22.9558 24.2554 21.76C24.2554 21.5707 24.2133 21.3903 24.1608 21.1995L23.7156 21.57ZM124.895 27.2205L123.19 24.8608V22.4056L130.482 17.2424L125.539 11.5371L117.411 17.2424V28.0258L121.729 32.4081L130.482 25.8251L128.968 23.8994L124.895 27.2205ZM123.191 15.8122L125.308 18.2466L123.191 19.6532V15.8122ZM113.041 27.2205L111.475 24.8608V17.2417L111.867 17.3038L112.385 17.3356L113.295 17.3888C114.248 17.4421 115.337 17.0191 116.11 16.4792C117.21 15.7168 117.804 14.3731 117.804 13.0501C117.804 12.5532 117.804 11.8965 117.411 11.5371C116.47 11.9283 115.804 12.7115 114.692 12.7115C114.237 12.7115 113.782 12.5739 113.4 12.3092L112.373 11.6214L112.194 11.5364L105.146 17.2417V28.0251L109.294 32.4392L116.819 27.2205L115.56 25.5492L113.041 27.2205ZM103.019 15.7168L98.9224 11.5364L94.9749 14.944L91.4608 11.5364L86.8042 14.944L89.6409 18.2466V30.6607H94.9749V18.2466L95.9163 17.2417L97.1757 18.2466V28.0251L100.901 31.8572L104.532 28.5975L103.018 27.2213V15.7168H103.019ZM87.9785 17.2417L82.6245 11.5364L74.9403 17.2417V27.2205L78.9832 31.6561L87.9785 24.8608L86.4662 23.3367L82.1897 26.6282L80.7077 24.86V22.4049L87.9785 17.2417ZM80.7077 15.9497L82.8034 18.7754L80.7077 19.7804V15.9497ZM73.1196 14.944L69.025 11.5364L65.1722 14.944L61.5634 11.5364L57.0546 14.944L59.8485 18.2466V30.6607H65.1722V18.2466L66.1986 17.2417L67.4476 18.7754V28.0251L71.0875 31.6346L74.941 28.0251L73.1196 25.5492V14.944ZM55.9321 6.42419L52.2597 2.86792L48.5659 6.42419L52.2597 10.0544L55.9321 6.42419ZM55.9321 15.3885L52.2597 11.5364L47.6556 14.944L50.6084 18.2466V28.0251L54.1965 31.2967L58.3244 28.0251L55.9321 25.3474V15.3885ZM46.746 14.944L42.9042 11.5364L39.1786 14.944L35.6438 11.5364L31.5055 14.944L28.1504 11.5364L24.16 14.944L26.15 17.2417V30.6607H31.5048V18.2466L32.5527 17.2417L33.8017 18.7754V30.6607H39.1779V18.2466L40.1193 17.2417L41.3794 18.7754V28.0251L44.9993 31.6132L49.3069 28.0251L46.746 25.232V14.944Z" fill="#B01E24"/>
<path fill-rule="evenodd" clip-rule="evenodd" d="M23.7156 21.57C21.4934 23.3685 17.5452 25.581 14.6352 25.581C14.1375 25.581 13.7138 25.3267 13.5348 24.86L15.8731 22.4049V17.2417C15.8731 16.8919 15.7467 15.7279 16.3183 15.7279C16.7413 15.7279 17.398 16.1405 18.3076 16.1405C21.7367 16.1405 24.2983 13.5057 24.2983 10.1188C24.2983 9.90726 24.2554 9.70611 24.1608 9.51532L23.9071 9.63216L22.8592 10.2674C22.2137 10.6586 21.452 10.913 20.6895 10.913C19.0811 10.913 17.6842 9.65361 17.3455 9.65361C16.9854 9.65361 16.6999 10.0663 16.3191 10.0663C15.7371 10.0663 15.8643 8.53178 15.8643 8.18273C15.8643 7.91799 15.8532 6.96551 16.2873 6.96551C16.3398 6.96551 16.3827 6.97586 16.4248 6.97586L17.3559 7.13411C17.642 7.17701 17.9378 7.19772 18.2344 7.19772C19.9175 7.19772 21.6849 6.50924 22.8171 5.23951C23.6431 4.32918 24.3309 2.94261 24.3309 1.68323C24.3309 1.30165 24.2458 0.9208 24.1615 0.561401C23.1454 1.34454 22.0872 2.03228 20.7531 2.03228C19.473 2.03228 18.3616 1.37634 17.3773 0.635356L17.2819 0.561401L9.9475 7.36632V22.4049C9.9475 22.7658 10.0532 23.7715 9.47126 23.7715C9.00537 23.7715 8.45518 22.8301 8.26439 22.5543C6.88891 20.6071 6.36978 18.1402 6.36978 15.7915C6.36978 12.1613 7.60845 8.36169 9.9682 5.5782C10.349 5.13376 10.7513 4.68858 11.0161 4.18128C9.72491 4.73147 8.53948 5.32455 7.44945 6.24523C3.72383 9.37851 0.516602 13.9923 0.516602 18.9987C0.516602 25.6979 5.79814 31.4342 12.5395 31.4342C17.0379 31.4342 20.657 28.9369 22.9539 25.1684C23.5566 24.1952 24.2554 22.9558 24.2554 21.76C24.2554 21.5707 24.2133 21.3903 24.1608 21.1995L23.7156 21.57ZM124.895 27.2205L123.19 24.8608V22.4056L130.482 17.2424L125.539 11.5371L117.411 17.2424V28.0258L121.729 32.4081L130.482 25.8251L128.968 23.8994L124.895 27.2205ZM123.191 15.8122L125.308 18.2466L123.191 19.6532V15.8122ZM113.041 27.2205L111.475 24.8608V17.2417L111.867 17.3038L112.385 17.3356L113.295 17.3888C114.248 17.4421 115.337 17.0191 116.11 16.4792C117.21 15.7168 117.804 14.3731 117.804 13.0501C117.804 12.5532 117.804 11.8965 117.411 11.5371C116.47 11.9283 115.804 12.7115 114.692 12.7115C114.237 12.7115 113.782 12.5739 113.4 12.3092L112.373 11.6214L112.194 11.5364L105.146 17.2417V28.0251L109.294 32.4392L116.819 27.2205L115.56 25.5492L113.041 27.2205ZM103.019 15.7168L98.9224 11.5364L94.9749 14.944L91.4608 11.5364L86.8042 14.944L89.6409 18.2466V30.6607H94.9749V18.2466L95.9163 17.2417L97.1757 18.2466V28.0251L100.901 31.8572L104.532 28.5975L103.018 27.2213V15.7168H103.019ZM87.9785 17.2417L82.6245 11.5364L74.9403 17.2417V27.2205L78.9832 31.6561L87.9785 24.8608L86.4662 23.3367L82.1897 26.6282L80.7077 24.86V22.4049L87.9785 17.2417ZM80.7077 15.9497L82.8034 18.7754L80.7077 19.7804V15.9497ZM73.1196 14.944L69.025 11.5364L65.1722 14.944L61.5634 11.5364L57.0546 14.944L59.8485 18.2466V30.6607H65.1722V18.2466L66.1986 17.2417L67.4476 18.7754V28.0251L71.0875 31.6346L74.941 28.0251L73.1196 25.5492V14.944ZM55.9321 6.42419L52.2597 2.86792L48.5659 6.42419L52.2597 10.0544L55.9321 6.42419ZM55.9321 15.3885L52.2597 11.5364L47.6556 14.944L50.6084 18.2466V28.0251L54.1965 31.2967L58.3244 28.0251L55.9321 25.3474V15.3885ZM46.746 14.944L42.9042 11.5364L39.1786 14.944L35.6438 11.5364L31.5055 14.944L28.1504 11.5364L24.16 14.944L26.15 17.2417V30.6607H31.5048V18.2466L32.5527 17.2417L33.8017 18.7754V30.6607H39.1779V18.2466L40.1193 17.2417L41.3794 18.7754V28.0251L44.9993 31.6132L49.3069 28.0251L46.746 25.232V14.944Z" fill="#565656"/>
</g>
<defs>
<clipPath id="clip0_1_1006">
<rect width="130" height="31.9298" fill="white" transform="translate(0.5 0.535034)"/>
</clipPath>
</defs>
</svg>
